<svg width="74" height="74" viewBox="0 0 74 74" fill="none" xmlns="http://www.w3.org/2000/svg">
<path d="M62.0834 12.7078V29.9091L44.8821 12.7078H62.0834Z" fill="#FC8215"/>
<path d="M40.2775 65.7378L65.7675 40.2478C67.6095 41.7035 70.2832 41.5847 71.9766 39.8913C73.7888 38.079 73.7888 35.1082 71.9766 33.2663C70.1644 31.454 67.1935 31.454 65.3516 33.2663C64.5495 34.0684 64.1038 35.2864 64.0147 36.3262H46.1004V37.2175H64.0147C64.1038 38.1385 64.4603 38.8812 65.1139 39.6239L39.6536 65.0842C38.9109 64.4306 37.9899 64.0741 37.069 63.985L37.1284 48.2394H36.2371L36.1777 63.985C35.227 64.0741 34.3061 64.4306 33.5633 65.0842L8.22187 39.7427C8.84575 39 9.23197 38.1385 9.32109 37.2175H22.3632V36.3262H9.35079C9.29138 35.4053 8.93487 34.4843 8.31099 33.7416L33.7713 8.28128C34.514 8.87545 35.3756 9.23196 36.2965 9.32108L36.2371 27.4731H37.1284L37.1878 9.32108C38.2276 9.23196 39.2674 8.78633 40.0695 7.98419C41.8818 6.17197 41.8818 3.20111 40.0695 1.35917C38.2573 -0.453057 35.2864 -0.453057 33.4445 1.35917C31.7214 3.08227 31.6323 5.81546 33.1474 7.6574L7.68712 33.1177C5.84518 31.5729 3.11198 31.662 1.35917 33.3851C-0.453057 35.1973 -0.453057 38.1682 1.35917 40.0101C3.05256 41.7035 5.72634 41.8223 7.56828 40.3666L32.9395 65.7378C31.4837 67.5797 31.6026 70.2535 33.296 71.9469C35.1082 73.7591 38.0791 73.7591 39.921 71.9469C41.5847 70.2535 41.7035 67.5797 40.2775 65.7378ZM65.9755 33.8901C67.4609 32.4047 69.8673 32.4047 71.323 33.8901C72.8084 35.3756 72.8084 37.782 71.323 39.2377C69.8376 40.7231 67.4312 40.7231 65.9755 39.2377C64.49 37.782 64.49 35.3756 65.9755 33.8901ZM34.0684 1.98305C35.5538 0.497622 37.9602 0.497622 39.4159 1.98305C40.9014 3.46849 40.9014 5.87489 39.4159 7.33061C37.9305 8.81604 35.5241 8.81604 34.0684 7.33061C32.583 5.87489 32.583 3.46849 34.0684 1.98305ZM1.98305 39.3565C0.497622 37.8711 0.497622 35.4647 1.98305 34.009C3.46849 32.5235 5.87489 32.5235 7.33061 34.009C8.81604 35.4944 8.81604 37.9008 7.33061 39.3565C5.84518 40.842 3.46849 40.842 1.98305 39.3565ZM33.9198 71.2933C32.4344 69.8079 32.4344 67.4015 33.9198 65.9458C35.4053 64.49 37.8117 64.4603 39.2674 65.9458C40.7528 67.4312 40.7528 69.8376 39.2674 71.2933C37.782 72.7787 35.4053 72.7787 33.9198 71.2933Z" fill="#FC8215"/>
<path d="M39.8914 7.83545L65.827 33.7414" stroke="#FC8215" stroke-miterlimit="10"/>
<path d="M41.7632 43.5454C44.9717 39.4159 49.2498 34.8408 49.2498 34.8408L45.7739 31.3649C45.7739 31.3649 42.6545 34.6922 41.0799 36.6233C39.3568 37.5443 37.2772 38.3761 35.257 38.8217C34.2172 39.0594 33.1774 39.4456 32.1673 39.8615C32.9397 38.6732 33.7716 37.4551 34.6034 36.3856C37.812 32.2561 42.09 27.681 42.09 27.681L38.6141 24.2051C38.6141 24.2051 36.0889 26.8194 34.9896 28.1563C32.9694 29.1664 29.7015 29.6418 26.7306 30.3251C23.0468 31.1569 19.7788 34.6922 19.7788 34.6922L22.304 37.2175C22.304 37.2175 25.78 33.0583 27.6813 31.6917C29.137 30.6221 32.6129 29.6418 34.0984 29.2555C32.9695 30.6519 31.7217 32.167 30.9493 33.2068C29.1073 35.7023 26.0176 40.8122 26.0176 40.8122L27.5328 42.3273L29.4638 44.2584L30.058 44.8526C30.058 44.8526 32.0782 41.7629 35.2273 40.3072C36.2968 39.8021 38.317 38.792 40.0401 37.8711C39.2974 38.792 38.5844 39.6833 38.0793 40.3666C36.2374 42.8621 33.1477 47.972 33.1477 47.972L36.5939 51.4182C36.6533 51.3885 39.3271 46.6648 41.7632 43.5454Z" fill="url(#paint0_linear)"/>
<defs>
<linearGradient id="paint0_linear" x1="34.5436" y1="51.3972" x2="34.5436" y2="24.2204" gradientUnits="userSpaceOnUse">
<stop stop-color="#E56620"/>
<stop offset="0.7365" stop-color="#FC8215"/>
</linearGradient>
</defs>
</svg>
