<svg width="324" height="86" viewBox="0 0 324 86" fill="none" xmlns="http://www.w3.org/2000/svg">
<path d="M82.8706 16.2641L93.4531 37.937H92.4654L88.4582 29.8661H77.142L73.1912 37.937H72.3163L82.8706 16.2641ZM82.786 18.2112L77.5088 29.0477H88.1195L82.786 18.2112ZM96.2703 43.581V25.238H97.1733V28.3422C97.6813 27.3075 98.4714 26.4797 99.5438 25.8589C100.635 25.238 101.764 24.9276 102.93 24.9276C104.793 24.9276 106.373 25.5861 107.671 26.903C108.988 28.2011 109.647 29.7626 109.647 31.5875C109.647 33.4124 108.988 34.9833 107.671 36.3003C106.373 37.5984 104.793 38.2474 102.93 38.2474C101.801 38.2474 100.701 37.9464 99.6284 37.3444C98.5561 36.7236 97.7377 35.8958 97.1733 34.861V43.581H96.2703ZM97.1169 31.6157C97.1169 33.1961 97.6907 34.5694 98.8383 35.7359C100.005 36.8835 101.378 37.4573 102.958 37.4573C104.558 37.4573 105.922 36.8835 107.05 35.7359C108.179 34.5694 108.744 33.1961 108.744 31.6157C108.744 30.0166 108.17 28.6338 107.022 27.4674C105.893 26.301 104.539 25.7178 102.958 25.7178C101.378 25.7178 100.005 26.3104 98.8383 27.4956C97.6907 28.662 97.1169 30.0354 97.1169 31.6157ZM117.432 30.233L122.539 37.937H121.495L116.924 31.0231L112.38 37.937H111.477L116.472 30.3176L113.114 25.238H114.158L116.98 29.5275L119.802 25.238H120.705L117.432 30.233ZM136.18 25.2662V37.937H135.306V26.6772L126.162 37.937H125.372V25.2662H126.247V36.526L135.362 25.2662H136.18ZM147.954 17.5904H141.35V37.937H140.419V16.772H147.954V17.5904ZM147.033 43.581V25.238H147.936V28.3422C148.444 27.3075 149.234 26.4797 150.307 25.8589C151.398 25.238 152.527 24.9276 153.693 24.9276C155.556 24.9276 157.136 25.5861 158.434 26.903C159.751 28.2011 160.409 29.7626 160.409 31.5875C160.409 33.4124 159.751 34.9833 158.434 36.3003C157.136 37.5984 155.556 38.2474 153.693 38.2474C152.564 38.2474 151.464 37.9464 150.391 37.3444C149.319 36.7236 148.501 35.8958 147.936 34.861V43.581H147.033ZM147.88 31.6157C147.88 33.1961 148.454 34.5694 149.601 35.7359C150.768 36.8835 152.141 37.4573 153.721 37.4573C155.32 37.4573 156.684 36.8835 157.813 35.7359C158.942 34.5694 159.506 33.1961 159.506 31.6157C159.506 30.0166 158.933 28.6338 157.785 27.4674C156.656 26.301 155.302 25.7178 153.721 25.7178C152.141 25.7178 150.768 26.3104 149.601 27.4956C148.454 28.662 147.88 30.0354 147.88 31.6157ZM176.04 25.238V37.937H175.137V34.7764C174.61 35.8487 173.82 36.6953 172.766 37.3162C171.713 37.937 170.584 38.2474 169.38 38.2474C167.536 38.2474 165.956 37.5984 164.639 36.3003C163.322 34.9833 162.663 33.4124 162.663 31.5875C162.663 29.7626 163.322 28.2011 164.639 26.903C165.956 25.5861 167.536 24.9276 169.38 24.9276C170.584 24.9276 171.731 25.2474 172.823 25.8871C173.933 26.5267 174.704 27.3733 175.137 28.4269V25.238H176.04ZM163.566 31.6157C163.566 33.1961 164.14 34.5694 165.288 35.7359C166.454 36.8835 167.828 37.4573 169.408 37.4573C171.007 37.4573 172.371 36.8835 173.5 35.7359C174.629 34.5694 175.193 33.1961 175.193 31.6157C175.193 30.0166 174.619 28.6338 173.472 27.4674C172.343 26.301 170.988 25.7178 169.408 25.7178C167.828 25.7178 166.454 26.3104 165.288 27.4956C164.14 28.662 163.566 30.0354 163.566 31.6157ZM186.308 20.1866H187.211V24.9276H187.352C189.196 24.9276 190.757 25.5767 192.037 26.8748C193.335 28.1541 193.984 29.6968 193.984 31.5029C193.984 33.2901 193.344 34.8422 192.065 36.1592C190.804 37.4573 189.252 38.1063 187.409 38.1063H187.211V43.5246H186.308V38.1063H186.082C184.22 38.1063 182.621 37.4479 181.285 36.1309C179.949 34.814 179.281 33.2713 179.281 31.5029C179.281 29.7156 179.949 28.1729 181.285 26.8748C182.639 25.5767 184.238 24.9276 186.082 24.9276H186.308V20.1866ZM186.308 25.7178H186.082C184.502 25.7178 183.11 26.301 181.906 27.4674C180.72 28.615 180.128 29.9696 180.128 31.5311C180.128 33.0926 180.72 34.4471 181.906 35.5948C183.11 36.7424 184.502 37.3162 186.082 37.3162H186.308V25.7178ZM187.211 25.7178V37.3162H187.38C188.961 37.3162 190.306 36.7518 191.416 35.623C192.545 34.4754 193.109 33.1114 193.109 31.5311C193.109 29.9508 192.545 28.5868 191.416 27.4392C190.287 26.2916 188.932 25.7178 187.352 25.7178H187.211ZM197.048 38.1346C196.408 38.1346 196.089 37.8429 196.089 37.2597C196.089 36.6765 196.408 36.3849 197.048 36.3849C197.707 36.3849 198.036 36.6765 198.036 37.2597C198.036 37.8429 197.707 38.1346 197.048 38.1346Z" fill="#231F21"/>
<path d="M224.514 16.7644V37.9294H223.583V17.865L213.593 38.3245L203.659 17.865V37.9294H202.813V16.7644H204.167L213.677 36.2927L223.216 16.7644H224.514ZM227.617 40.6668V37.1111H229.169L239.356 16.2847L249.544 37.1111H250.898V40.6668H250.023V37.9294H228.435V40.6668H227.617ZM239.271 18.2319L230.044 37.1111H248.584L239.271 18.2319ZM275.69 16.7644V37.9294H274.759V17.865L264.769 38.3245L254.836 17.865V37.9294H253.989V16.7644H255.344L264.854 36.2927L274.392 16.7644H275.69Z" fill="#571CA8"/>
<path d="M224.514 16.7644H225.264V16.0144H224.514V16.7644ZM224.514 37.9294V38.6794H225.264V37.9294H224.514ZM223.583 37.9294H222.833V38.6794H223.583V37.9294ZM223.583 17.865H224.333V14.6197L222.909 17.5359L223.583 17.865ZM213.593 38.3245L212.918 38.6521L213.591 40.0378L214.267 38.6536L213.593 38.3245ZM203.659 17.865L204.334 17.5375L202.909 14.6031V17.865H203.659ZM203.659 37.9294V38.6794H204.409V37.9294H203.659ZM202.813 37.9294H202.063V38.6794H202.813V37.9294ZM202.813 16.7644V16.0144H202.063V16.7644H202.813ZM204.167 16.7644L204.842 16.4361L204.636 16.0144H204.167V16.7644ZM213.677 36.2927L213.003 36.6211L213.676 38.0036L214.351 36.6218L213.677 36.2927ZM223.216 16.7644V16.0144H222.747L222.542 16.4353L223.216 16.7644ZM223.764 16.7644V37.9294H225.264V16.7644H223.764ZM224.514 37.1794H223.583V38.6794H224.514V37.1794ZM224.333 37.9294V17.865H222.833V37.9294H224.333ZM222.909 17.5359L212.919 37.9954L214.267 38.6536L224.257 18.1941L222.909 17.5359ZM214.268 37.997L204.334 17.5375L202.985 18.1926L212.918 38.6521L214.268 37.997ZM202.909 17.865V37.9294H204.409V17.865H202.909ZM203.659 37.1794H202.813V38.6794H203.659V37.1794ZM203.563 37.9294V16.7644H202.063V37.9294H203.563ZM202.813 17.5144H204.167V16.0144H202.813V17.5144ZM203.493 17.0928L213.003 36.6211L214.352 35.9643L204.842 16.4361L203.493 17.0928ZM214.351 36.6218L223.89 17.0936L222.542 16.4353L213.004 35.9635L214.351 36.6218ZM223.216 17.5144H224.514V16.0144H223.216V17.5144ZM227.617 40.6668H226.867V41.4168H227.617V40.6668ZM227.617 37.1111V36.3611H226.867V37.1111H227.617ZM229.169 37.1111V37.8611H229.637L229.842 37.4406L229.169 37.1111ZM239.356 16.2847L240.03 15.9551L239.356 14.5779L238.682 15.9551L239.356 16.2847ZM249.544 37.1111L248.87 37.4406L249.076 37.8611H249.544V37.1111ZM250.898 37.1111H251.648V36.3611H250.898V37.1111ZM250.898 40.6668V41.4168H251.648V40.6668H250.898ZM250.023 40.6668H249.273V41.4168H250.023V40.6668ZM250.023 37.9294H250.773V37.1794H250.023V37.9294ZM228.435 37.9294V37.1794H227.685V37.9294H228.435ZM228.435 40.6668V41.4168H229.185V40.6668H228.435ZM239.271 18.2319L239.944 17.9001L239.268 16.5303L238.598 17.9025L239.271 18.2319ZM230.044 37.1111L229.37 36.7817L228.842 37.8611H230.044V37.1111ZM248.584 37.1111V37.8611H249.79L249.257 36.7793L248.584 37.1111ZM228.367 40.6668V37.1111H226.867V40.6668H228.367ZM227.617 37.8611H229.169V36.3611H227.617V37.8611ZM229.842 37.4406L240.03 16.6143L238.682 15.9551L228.495 36.7815L229.842 37.4406ZM238.682 16.6143L248.87 37.4406L250.217 36.7815L240.03 15.9551L238.682 16.6143ZM249.544 37.8611H250.898V36.3611H249.544V37.8611ZM250.148 37.1111V40.6668H251.648V37.1111H250.148ZM250.898 39.9168H250.023V41.4168H250.898V39.9168ZM250.773 40.6668V37.9294H249.273V40.6668H250.773ZM250.023 37.1794H228.435V38.6794H250.023V37.1794ZM227.685 37.9294V40.6668H229.185V37.9294H227.685ZM228.435 39.9168H227.617V41.4168H228.435V39.9168ZM238.598 17.9025L229.37 36.7817L230.717 37.4404L239.945 18.5612L238.598 17.9025ZM230.044 37.8611H248.584V36.3611H230.044V37.8611ZM249.257 36.7793L239.944 17.9001L238.599 18.5637L247.911 37.4429L249.257 36.7793ZM275.69 16.7644H276.44V16.0144H275.69V16.7644ZM275.69 37.9294V38.6794H276.44V37.9294H275.69ZM274.759 37.9294H274.009V38.6794H274.759V37.9294ZM274.759 17.865H275.509V14.6197L274.085 17.5359L274.759 17.865ZM264.769 38.3245L264.094 38.6521L264.767 40.0378L265.443 38.6536L264.769 38.3245ZM254.836 17.865L255.51 17.5375L254.086 14.6031V17.865H254.836ZM254.836 37.9294V38.6794H255.586V37.9294H254.836ZM253.989 37.9294H253.239V38.6794H253.989V37.9294ZM253.989 16.7644V16.0144H253.239V16.7644H253.989ZM255.344 16.7644L256.018 16.4361L255.813 16.0144H255.344V16.7644ZM264.854 36.2927L264.18 36.6211L264.853 38.0036L265.528 36.6218L264.854 36.2927ZM274.392 16.7644V16.0144H273.924L273.718 16.4353L274.392 16.7644ZM274.94 16.7644V37.9294H276.44V16.7644H274.94ZM275.69 37.1794H274.759V38.6794H275.69V37.1794ZM275.509 37.9294V17.865H274.009V37.9294H275.509ZM274.085 17.5359L264.095 37.9954L265.443 38.6536L275.433 18.1941L274.085 17.5359ZM265.444 37.997L255.51 17.5375L254.161 18.1926L264.094 38.6521L265.444 37.997ZM254.086 17.865V37.9294H255.586V17.865H254.086ZM254.836 37.1794H253.989V38.6794H254.836V37.1794ZM254.739 37.9294V16.7644H253.239V37.9294H254.739ZM253.989 17.5144H255.344V16.0144H253.989V17.5144ZM254.669 17.0928L264.18 36.6211L265.528 35.9643L256.018 16.4361L254.669 17.0928ZM265.528 36.6218L275.066 17.0936L273.718 16.4353L264.18 35.9635L265.528 36.6218ZM274.392 17.5144H275.69V16.0144H274.392V17.5144Z" fill="#571CA8"/>
<path d="M51.8534 4.68677H1.08228V55.5534H51.8534V4.68677Z" fill="url(#paint0_radial)"/>
<path d="M50.7711 5.76905V54.4711H2.19637V5.76905H50.7711ZM52.9675 3.60449H0V56.6675H52.9675V3.60449Z" fill="#30292C"/>
<path d="M19.9583 0.580566L55.8323 36.4546V0.580566H19.9583Z" fill="#30292C"/>
<path d="M52.4264 27.9237L51.6943 27.2553C51.6625 27.2234 48.9886 24.7724 45.8691 21.6529L46.4739 21.0481C48.6066 23.1808 50.5165 24.9952 51.5351 25.9501V5.16424H34.5053C33.9323 5.16424 33.1684 5.29155 32.9137 5.89634C32.6591 6.50114 33.0092 7.39245 33.4549 7.83809C34.2506 8.63388 39.471 13.8224 40.8398 15.1911L47.6835 8.41104L48.0018 8.72935C50.039 10.7666 50.039 14.1089 48.0018 16.1461C47.0151 17.1329 45.6781 17.674 44.2775 17.674C42.877 17.674 41.5719 17.1329 40.5533 16.1461C40.4896 16.0824 33.7414 9.36597 32.8501 8.44286C32.1816 7.7744 31.7041 6.53298 32.118 5.54621C32.3089 5.06874 32.8819 4.27295 34.5053 4.27295H52.4264V27.9237ZM41.4764 15.7641C43.1953 17.1965 45.7418 17.101 47.3652 15.4776C48.9568 13.8861 49.0523 11.3395 47.6517 9.62065L41.4764 15.7641Z" fill="#F4EDF0"/>
<path d="M32.3089 35.8179C35.2374 32.0618 39.1527 27.8919 39.1527 27.8919L36.0013 24.7406C36.0013 24.7406 33.1683 27.7646 31.7041 29.5471C30.1125 30.4066 28.2345 31.1387 26.3882 31.5525C25.4333 31.7754 24.4784 32.1255 23.5871 32.5075C24.2874 31.4252 25.0513 30.3111 25.8153 29.3562C28.7438 25.6001 32.659 21.4301 32.659 21.4301L29.5077 18.2788C29.5077 18.2788 27.2159 20.6662 26.1973 21.8758C24.351 22.7989 21.3907 23.2445 18.685 23.8493C15.3427 24.6133 11.6821 28.4012 11.6821 28.4012L13.974 30.6931C13.974 30.6931 17.8256 26.3322 19.5445 25.0907C20.8814 24.1358 24.0327 23.2127 25.4015 22.8625C24.351 24.1358 23.2369 25.5046 22.5366 26.4595C20.8496 28.7195 17.38 33.9399 17.38 33.9399L18.7487 35.3086L20.4994 37.0594L21.0406 37.6005C21.0406 37.6005 23.5552 34.1945 26.4201 32.8894C27.4069 32.4438 29.2212 31.4889 30.8128 30.6612C30.1444 31.4889 29.5077 32.3165 29.0303 32.9213C27.3432 35.1813 23.8736 40.4017 23.8736 40.4017L27.0249 43.553C26.993 43.553 30.1125 38.6828 32.3089 35.8179Z" fill="url(#paint1_linear)"/>
<path d="M44.4684 31.2342L45.6143 30.0883L45.1368 29.6108L27.534 47.2136L18.2711 45.2082L11.682 38.6191C12.2549 38.3645 12.8597 38.2053 13.5282 38.2053C14.7696 38.2053 15.9156 38.7146 16.775 39.6059L17.2843 39.1284C16.3294 38.1098 14.9606 37.505 13.5282 37.505C12.6687 37.505 11.873 37.7278 11.1727 38.078L9.9949 36.9002L7.98953 27.6373L17.0615 18.5653L11.0453 12.5173L10.5679 12.9948L16.1065 18.5653L7.2574 27.4145L9.35827 37.2503L10.536 38.4281C9.54927 39.1284 8.81715 40.1789 8.49883 41.4203C7.63938 40.9428 6.77993 40.5927 5.92048 40.3698L5.72949 41.0383C6.58894 41.2611 7.48022 41.6749 8.3715 42.1524C8.3715 42.3116 8.33967 42.4707 8.33967 42.6299C8.33967 45.4629 10.6315 47.7547 13.4645 47.7547C13.6237 47.7547 13.7828 47.7547 13.942 47.7229C14.4513 48.6142 14.8333 49.5373 15.0879 50.4286L15.7564 50.2376C15.2153 48.1367 13.8783 45.9403 12.0003 44.0623C11.109 43.171 10.1222 42.3752 9.10363 41.7704C9.32645 40.5927 10.0267 39.5422 10.9817 38.9056L17.7618 45.6857L17.8254 45.7494L27.6613 47.8502L43.8954 31.6162L45.0095 32.7621L28.0115 49.7919L17.7618 47.5956L17.6026 48.2641L28.2343 50.5559L45.9644 32.7939L44.4684 31.2342ZM11.5546 44.6353C12.3504 45.431 13.0189 46.2586 13.5919 47.1181C13.56 47.1181 13.56 47.1181 13.5282 47.1181C11.0772 47.1181 9.07179 45.1127 9.07179 42.6617C9.07179 42.6299 9.07179 42.6299 9.07179 42.598C9.93124 43.171 10.7907 43.8395 11.5546 44.6353Z" fill="url(#paint2_linear)"/>
<path d="M76.7259 55.5038H77.6749V63.0438L83.4989 55.5038H84.3699V64.6038H83.4209V57.0768L77.5969 64.6038H76.7259V55.5038ZM87.2197 57.7658H88.1427V60.7948H92.4457V57.7658H93.3687V64.6038H92.4457V61.5878H88.1427V64.6038H87.2197V57.7658ZM98.8522 64.6688C98.1762 64.6688 97.5695 64.5214 97.0322 64.2268C96.5035 63.9321 96.0875 63.5204 95.7842 62.9918C95.4809 62.4544 95.3292 61.8521 95.3292 61.1848C95.3292 60.5174 95.4809 59.9194 95.7842 59.3908C96.0875 58.8621 96.5035 58.4504 97.0322 58.1558C97.5695 57.8611 98.1762 57.7138 98.8522 57.7138C99.4415 57.7138 99.9659 57.8308 100.425 58.0648C100.893 58.2901 101.262 58.6238 101.53 59.0658L100.841 59.5338C100.616 59.1958 100.33 58.9444 99.9832 58.7798C99.6365 58.6064 99.2595 58.5198 98.8522 58.5198C98.3582 58.5198 97.9119 58.6324 97.5132 58.8578C97.1232 59.0744 96.8155 59.3864 96.5902 59.7938C96.3735 60.2011 96.2652 60.6648 96.2652 61.1848C96.2652 61.7134 96.3735 62.1814 96.5902 62.5888C96.8155 62.9874 97.1232 63.2994 97.5132 63.5248C97.9119 63.7414 98.3582 63.8498 98.8522 63.8498C99.2595 63.8498 99.6365 63.7674 99.9832 63.6028C100.33 63.4381 100.616 63.1868 100.841 62.8488L101.53 63.3168C101.262 63.7588 100.893 64.0968 100.425 64.3308C99.9572 64.5561 99.4329 64.6688 98.8522 64.6688ZM108 58.5848H105.413V64.6038H104.49V58.5848H101.903V57.7658H108V58.5848ZM112.858 57.7138C113.499 57.7138 114.08 57.8611 114.6 58.1558C115.12 58.4418 115.527 58.8491 115.822 59.3778C116.117 59.9064 116.264 60.5088 116.264 61.1848C116.264 61.8694 116.117 62.4761 115.822 63.0048C115.527 63.5334 115.12 63.9451 114.6 64.2398C114.089 64.5258 113.508 64.6688 112.858 64.6688C112.303 64.6688 111.801 64.5561 111.35 64.3308C110.908 64.0968 110.544 63.7588 110.258 63.3168V67.1258H109.335V57.7658H110.219V59.1178C110.496 58.6671 110.86 58.3204 111.311 58.0778C111.77 57.8351 112.286 57.7138 112.858 57.7138ZM112.793 63.8498C113.27 63.8498 113.703 63.7414 114.093 63.5248C114.483 63.2994 114.786 62.9831 115.003 62.5758C115.228 62.1684 115.341 61.7048 115.341 61.1848C115.341 60.6648 115.228 60.2054 115.003 59.8068C114.786 59.3994 114.483 59.0831 114.093 58.8578C113.703 58.6324 113.27 58.5198 112.793 58.5198C112.308 58.5198 111.87 58.6324 111.48 58.8578C111.099 59.0831 110.795 59.3994 110.57 59.8068C110.353 60.2054 110.245 60.6648 110.245 61.1848C110.245 61.7048 110.353 62.1684 110.57 62.5758C110.795 62.9831 111.099 63.2994 111.48 63.5248C111.87 63.7414 112.308 63.8498 112.793 63.8498ZM123.868 57.7658L120.449 65.4228C120.171 66.0641 119.851 66.5191 119.487 66.7878C119.123 67.0564 118.685 67.1908 118.174 67.1908C117.844 67.1908 117.537 67.1388 117.251 67.0348C116.965 66.9308 116.718 66.7748 116.51 66.5668L116.939 65.8778C117.285 66.2244 117.701 66.3978 118.187 66.3978C118.499 66.3978 118.763 66.3111 118.98 66.1378C119.205 65.9644 119.413 65.6698 119.604 65.2538L119.903 64.5908L116.848 57.7658H117.81L120.384 63.5768L122.958 57.7658H123.868ZM132.95 57.7658V64.6038H132.105V59.1958L129.336 63.7718H128.92L126.151 59.1828V64.6038H125.306V57.7658H126.242L129.141 62.6928L132.092 57.7658H132.95ZM141.556 61.4708H135.836C135.888 62.1814 136.161 62.7578 136.655 63.1998C137.149 63.6331 137.773 63.8498 138.527 63.8498C138.952 63.8498 139.342 63.7761 139.697 63.6288C140.053 63.4728 140.36 63.2474 140.62 62.9528L141.14 63.5508C140.837 63.9148 140.456 64.1921 139.996 64.3828C139.546 64.5734 139.047 64.6688 138.501 64.6688C137.799 64.6688 137.175 64.5214 136.629 64.2268C136.092 63.9234 135.672 63.5074 135.368 62.9788C135.065 62.4501 134.913 61.8521 134.913 61.1848C134.913 60.5174 135.056 59.9194 135.342 59.3908C135.637 58.8621 136.036 58.4504 136.538 58.1558C137.05 57.8611 137.622 57.7138 138.254 57.7138C138.887 57.7138 139.455 57.8611 139.957 58.1558C140.46 58.4504 140.854 58.8621 141.14 59.3908C141.426 59.9108 141.569 60.5088 141.569 61.1848L141.556 61.4708ZM138.254 58.5068C137.596 58.5068 137.041 58.7191 136.59 59.1438C136.148 59.5598 135.897 60.1058 135.836 60.7818H140.685C140.625 60.1058 140.369 59.5598 139.918 59.1438C139.476 58.7191 138.922 58.5068 138.254 58.5068ZM143.612 57.7658H144.535V60.7948H148.838V57.7658H149.761V64.6038H148.838V61.5878H144.535V64.6038H143.612V57.7658ZM157.195 58.5848H154.608V64.6038H153.685V58.5848H151.098V57.7658H157.195V58.5848ZM165.455 57.7138C166.096 57.7138 166.677 57.8611 167.197 58.1558C167.717 58.4418 168.124 58.8491 168.419 59.3778C168.713 59.9064 168.861 60.5088 168.861 61.1848C168.861 61.8694 168.713 62.4761 168.419 63.0048C168.124 63.5334 167.717 63.9451 167.197 64.2398C166.685 64.5258 166.105 64.6688 165.455 64.6688C164.9 64.6688 164.397 64.5561 163.947 64.3308C163.505 64.0968 163.141 63.7588 162.855 63.3168V67.1258H161.932V57.7658H162.816V59.1178C163.093 58.6671 163.457 58.3204 163.908 58.0778C164.367 57.8351 164.883 57.7138 165.455 57.7138ZM165.39 63.8498C165.866 63.8498 166.3 63.7414 166.69 63.5248C167.08 63.2994 167.383 62.9831 167.6 62.5758C167.825 62.1684 167.938 61.7048 167.938 61.1848C167.938 60.6648 167.825 60.2054 167.6 59.8068C167.383 59.3994 167.08 59.0831 166.69 58.8578C166.3 58.6324 165.866 58.5198 165.39 58.5198C164.904 58.5198 164.467 58.6324 164.077 58.8578C163.695 59.0831 163.392 59.3994 163.167 59.8068C162.95 60.2054 162.842 60.6648 162.842 61.1848C162.842 61.7048 162.95 62.1684 163.167 62.5758C163.392 62.9831 163.695 63.2994 164.077 63.5248C164.467 63.7414 164.904 63.8498 165.39 63.8498ZM176.824 61.4708H171.104C171.156 62.1814 171.429 62.7578 171.923 63.1998C172.417 63.6331 173.041 63.8498 173.795 63.8498C174.219 63.8498 174.609 63.7761 174.965 63.6288C175.32 63.4728 175.628 63.2474 175.888 62.9528L176.408 63.5508C176.104 63.9148 175.723 64.1921 175.264 64.3828C174.813 64.5734 174.315 64.6688 173.769 64.6688C173.067 64.6688 172.443 64.5214 171.897 64.2268C171.359 63.9234 170.939 63.5074 170.636 62.9788C170.332 62.4501 170.181 61.8521 170.181 61.1848C170.181 60.5174 170.324 59.9194 170.61 59.3908C170.904 58.8621 171.303 58.4504 171.806 58.1558C172.317 57.8611 172.889 57.7138 173.522 57.7138C174.154 57.7138 174.722 57.8611 175.225 58.1558C175.727 58.4504 176.122 58.8621 176.408 59.3908C176.694 59.9108 176.837 60.5088 176.837 61.1848L176.824 61.4708ZM173.522 58.5068C172.863 58.5068 172.308 58.7191 171.858 59.1438C171.416 59.5598 171.164 60.1058 171.104 60.7818H175.953C175.892 60.1058 175.636 59.5598 175.186 59.1438C174.744 58.7191 174.189 58.5068 173.522 58.5068ZM185.409 63.7978V66.2548H184.538V64.6038H178.415V66.2548H177.544V63.7978H177.934C178.394 63.7718 178.706 63.4338 178.87 62.7838C179.035 62.1338 179.148 61.2238 179.208 60.0538L179.299 57.7658H184.343V63.7978H185.409ZM180.053 60.1058C180.01 61.0764 179.928 61.8781 179.806 62.5108C179.685 63.1348 179.468 63.5638 179.156 63.7978H183.42V58.5848H180.131L180.053 60.1058ZM189.561 57.7138C190.454 57.7138 191.138 57.9391 191.615 58.3898C192.092 58.8318 192.33 59.4904 192.33 60.3658V64.6038H191.446V63.5378C191.238 63.8931 190.93 64.1704 190.523 64.3698C190.124 64.5691 189.648 64.6688 189.093 64.6688C188.33 64.6688 187.724 64.4868 187.273 64.1228C186.822 63.7588 186.597 63.2778 186.597 62.6798C186.597 62.0991 186.805 61.6311 187.221 61.2758C187.646 60.9204 188.317 60.7428 189.236 60.7428H191.407V60.3268C191.407 59.7374 191.242 59.2911 190.913 58.9878C190.584 58.6758 190.103 58.5198 189.47 58.5198C189.037 58.5198 188.621 58.5934 188.222 58.7408C187.823 58.8794 187.481 59.0744 187.195 59.3258L186.779 58.6368C187.126 58.3421 187.542 58.1168 188.027 57.9608C188.512 57.7961 189.024 57.7138 189.561 57.7138ZM189.236 63.9408C189.756 63.9408 190.202 63.8238 190.575 63.5898C190.948 63.3471 191.225 63.0004 191.407 62.5498V61.4318H189.262C188.092 61.4318 187.507 61.8391 187.507 62.6538C187.507 63.0524 187.659 63.3688 187.962 63.6028C188.265 63.8281 188.69 63.9408 189.236 63.9408ZM197.27 61.5618H195.71V64.6038H194.787V57.7658H195.71V60.7688H197.283L199.688 57.7658H200.689L197.998 61.0808L200.884 64.6038H199.792L197.27 61.5618ZM207.011 58.5848H204.424V64.6038H203.501V58.5848H200.914V57.7658H207.011V58.5848ZM208.346 57.7658H209.269V63.1998L213.832 57.7658H214.651V64.6038H213.728V59.1698L209.178 64.6038H208.346V57.7658ZM220.819 57.7138C221.46 57.7138 222.041 57.8611 222.561 58.1558C223.081 58.4418 223.488 58.8491 223.783 59.3778C224.078 59.9064 224.225 60.5088 224.225 61.1848C224.225 61.8694 224.078 62.4761 223.783 63.0048C223.488 63.5334 223.081 63.9451 222.561 64.2398C222.05 64.5258 221.469 64.6688 220.819 64.6688C220.264 64.6688 219.762 64.5561 219.311 64.3308C218.869 64.0968 218.505 63.7588 218.219 63.3168V67.1258H217.296V57.7658H218.18V59.1178C218.457 58.6671 218.821 58.3204 219.272 58.0778C219.731 57.8351 220.247 57.7138 220.819 57.7138ZM220.754 63.8498C221.231 63.8498 221.664 63.7414 222.054 63.5248C222.444 63.2994 222.747 62.9831 222.964 62.5758C223.189 62.1684 223.302 61.7048 223.302 61.1848C223.302 60.6648 223.189 60.2054 222.964 59.8068C222.747 59.3994 222.444 59.0831 222.054 58.8578C221.664 58.6324 221.231 58.5198 220.754 58.5198C220.269 58.5198 219.831 58.6324 219.441 58.8578C219.06 59.0831 218.756 59.3994 218.531 59.8068C218.314 60.2054 218.206 60.6648 218.206 61.1848C218.206 61.7048 218.314 62.1684 218.531 62.5758C218.756 62.9831 219.06 63.2994 219.441 63.5248C219.831 63.7414 220.269 63.8498 220.754 63.8498ZM229.029 64.6688C228.37 64.6688 227.777 64.5214 227.248 64.2268C226.719 63.9234 226.303 63.5074 226 62.9788C225.697 62.4501 225.545 61.8521 225.545 61.1848C225.545 60.5174 225.697 59.9194 226 59.3908C226.303 58.8621 226.719 58.4504 227.248 58.1558C227.777 57.8611 228.37 57.7138 229.029 57.7138C229.688 57.7138 230.281 57.8611 230.81 58.1558C231.339 58.4504 231.75 58.8621 232.045 59.3908C232.348 59.9194 232.5 60.5174 232.5 61.1848C232.5 61.8521 232.348 62.4501 232.045 62.9788C231.75 63.5074 231.339 63.9234 230.81 64.2268C230.281 64.5214 229.688 64.6688 229.029 64.6688ZM229.029 63.8498C229.514 63.8498 229.948 63.7414 230.329 63.5248C230.719 63.2994 231.022 62.9831 231.239 62.5758C231.456 62.1684 231.564 61.7048 231.564 61.1848C231.564 60.6648 231.456 60.2011 231.239 59.7938C231.022 59.3864 230.719 59.0744 230.329 58.8578C229.948 58.6324 229.514 58.5198 229.029 58.5198C228.544 58.5198 228.106 58.6324 227.716 58.8578C227.335 59.0744 227.031 59.3864 226.806 59.7938C226.589 60.2011 226.481 60.6648 226.481 61.1848C226.481 61.7048 226.589 62.1684 226.806 62.5758C227.031 62.9831 227.335 63.2994 227.716 63.5248C228.106 63.7414 228.544 63.8498 229.029 63.8498ZM238.828 61.0678C239.755 61.2844 240.219 61.8434 240.219 62.7448C240.219 63.3428 239.998 63.8021 239.556 64.1228C239.114 64.4434 238.455 64.6038 237.58 64.6038H234.473V57.7658H237.489C238.269 57.7658 238.88 57.9174 239.322 58.2208C239.764 58.5241 239.985 58.9574 239.985 59.5208C239.985 59.8934 239.881 60.2141 239.673 60.4828C239.473 60.7428 239.192 60.9378 238.828 61.0678ZM235.37 60.8078H237.424C237.952 60.8078 238.355 60.7081 238.633 60.5088C238.919 60.3094 239.062 60.0191 239.062 59.6378C239.062 59.2564 238.919 58.9704 238.633 58.7798C238.355 58.5891 237.952 58.4938 237.424 58.4938H235.37V60.8078ZM237.541 63.8758C238.13 63.8758 238.572 63.7804 238.867 63.5898C239.161 63.3991 239.309 63.1001 239.309 62.6928C239.309 62.2854 239.174 61.9864 238.906 61.7958C238.637 61.5964 238.212 61.4968 237.632 61.4968H235.37V63.8758H237.541ZM244.735 57.7138C245.628 57.7138 246.312 57.9391 246.789 58.3898C247.266 58.8318 247.504 59.4904 247.504 60.3658V64.6038H246.62V63.5378C246.412 63.8931 246.104 64.1704 245.697 64.3698C245.298 64.5691 244.822 64.6688 244.267 64.6688C243.504 64.6688 242.898 64.4868 242.447 64.1228C241.996 63.7588 241.771 63.2778 241.771 62.6798C241.771 62.0991 241.979 61.6311 242.395 61.2758C242.82 60.9204 243.491 60.7428 244.41 60.7428H246.581V60.3268C246.581 59.7374 246.416 59.2911 246.087 58.9878C245.758 58.6758 245.277 58.5198 244.644 58.5198C244.211 58.5198 243.795 58.5934 243.396 58.7408C242.997 58.8794 242.655 59.0744 242.369 59.3258L241.953 58.6368C242.3 58.3421 242.716 58.1168 243.201 57.9608C243.686 57.7961 244.198 57.7138 244.735 57.7138ZM244.41 63.9408C244.93 63.9408 245.376 63.8238 245.749 63.5898C246.122 63.3471 246.399 63.0004 246.581 62.5498V61.4318H244.436C243.266 61.4318 242.681 61.8391 242.681 62.6538C242.681 63.0524 242.833 63.3688 243.136 63.6028C243.439 63.8281 243.864 63.9408 244.41 63.9408ZM249.961 57.7658H250.884V60.7948H255.187V57.7658H256.11V64.6038H255.187V61.5878H250.884V64.6038H249.961V57.7658ZM258.733 57.7658H259.656V63.1998L264.219 57.7658H265.038V64.6038H264.115V59.1698L259.565 64.6038H258.733V57.7658ZM272.936 57.7658V64.6038H272.091V62.3418H269.946H269.686L268.1 64.6038H267.099L268.802 62.2118C268.273 62.0644 267.866 61.8131 267.58 61.4578C267.294 61.1024 267.151 60.6518 267.151 60.1058C267.151 59.3431 267.411 58.7624 267.931 58.3638C268.451 57.9651 269.161 57.7658 270.063 57.7658H272.936ZM268.087 60.1318C268.087 61.1458 268.732 61.6528 270.024 61.6528H272.091V58.5848H270.089C268.754 58.5848 268.087 59.1004 268.087 60.1318ZM82.6409 75.7658V82.6038H81.7179V76.5848H77.4279V82.6038H76.5049V75.7658H82.6409ZM88.7877 75.7138C89.429 75.7138 90.0097 75.8611 90.5297 76.1558C91.0497 76.4418 91.457 76.8491 91.7517 77.3778C92.0463 77.9064 92.1937 78.5088 92.1937 79.1848C92.1937 79.8694 92.0463 80.4761 91.7517 81.0048C91.457 81.5334 91.0497 81.9451 90.5297 82.2398C90.0183 82.5258 89.4377 82.6688 88.7877 82.6688C88.233 82.6688 87.7303 82.5561 87.2797 82.3308C86.8377 82.0968 86.4737 81.7588 86.1877 81.3168V85.1258H85.2647V75.7658H86.1487V77.1178C86.426 76.6671 86.79 76.3204 87.2407 76.0778C87.7 75.8351 88.2157 75.7138 88.7877 75.7138ZM88.7227 81.8498C89.1993 81.8498 89.6327 81.7414 90.0227 81.5248C90.4127 81.2994 90.716 80.9831 90.9327 80.5758C91.158 80.1684 91.2707 79.7048 91.2707 79.1848C91.2707 78.6648 91.158 78.2054 90.9327 77.8068C90.716 77.3994 90.4127 77.0831 90.0227 76.8578C89.6327 76.6324 89.1993 76.5198 88.7227 76.5198C88.2373 76.5198 87.7997 76.6324 87.4097 76.8578C87.0283 77.0831 86.725 77.3994 86.4997 77.8068C86.283 78.2054 86.1747 78.6648 86.1747 79.1848C86.1747 79.7048 86.283 80.1684 86.4997 80.5758C86.725 80.9831 87.0283 81.2994 87.4097 81.5248C87.7997 81.7414 88.2373 81.8498 88.7227 81.8498ZM96.4917 75.7138C97.3844 75.7138 98.069 75.9391 98.5457 76.3898C99.0224 76.8318 99.2607 77.4904 99.2607 78.3658V82.6038H98.3767V81.5378C98.1687 81.8931 97.861 82.1704 97.4537 82.3698C97.055 82.5691 96.5784 82.6688 96.0237 82.6688C95.261 82.6688 94.6544 82.4868 94.2037 82.1228C93.753 81.7588 93.5277 81.2778 93.5277 80.6798C93.5277 80.0991 93.7357 79.6311 94.1517 79.2758C94.5764 78.9204 95.248 78.7428 96.1667 78.7428H98.3377V78.3268C98.3377 77.7374 98.173 77.2911 97.8437 76.9878C97.5144 76.6758 97.0334 76.5198 96.4007 76.5198C95.9674 76.5198 95.5514 76.5934 95.1527 76.7408C94.754 76.8794 94.4117 77.0744 94.1257 77.3258L93.7097 76.6368C94.0564 76.3421 94.4724 76.1168 94.9577 75.9608C95.443 75.7961 95.9544 75.7138 96.4917 75.7138ZM96.1667 81.9408C96.6867 81.9408 97.133 81.8238 97.5057 81.5898C97.8784 81.3471 98.1557 81.0004 98.3377 80.5498V79.4318H96.1927C95.0227 79.4318 94.4377 79.8391 94.4377 80.6538C94.4377 81.0524 94.5894 81.3688 94.8927 81.6028C95.196 81.8281 95.6207 81.9408 96.1667 81.9408ZM106.073 79.0678C107 79.2844 107.464 79.8434 107.464 80.7448C107.464 81.3428 107.243 81.8021 106.801 82.1228C106.359 82.4434 105.7 82.6038 104.825 82.6038H101.718V75.7658H104.734C105.514 75.7658 106.125 75.9174 106.567 76.2208C107.009 76.5241 107.23 76.9574 107.23 77.5208C107.23 77.8934 107.126 78.2141 106.918 78.4828C106.718 78.7428 106.437 78.9378 106.073 79.0678ZM102.615 78.8078H104.669C105.197 78.8078 105.6 78.7081 105.878 78.5088C106.164 78.3094 106.307 78.0191 106.307 77.6378C106.307 77.2564 106.164 76.9704 105.878 76.7798C105.6 76.5891 105.197 76.4938 104.669 76.4938H102.615V78.8078ZM104.786 81.8758C105.375 81.8758 105.817 81.7804 106.112 81.5898C106.406 81.3991 106.554 81.1001 106.554 80.6928C106.554 80.2854 106.419 79.9864 106.151 79.7958C105.882 79.5964 105.457 79.4968 104.877 79.4968H102.615V81.8758H104.786ZM109.627 75.7658H110.55V81.1998L115.113 75.7658H115.932V82.6038H115.009V77.1698L110.459 82.6038H109.627V75.7658ZM124.167 75.7658V82.6038H123.244V76.5848H119.968L119.877 78.2748C119.808 79.6961 119.643 80.7881 119.383 81.5508C119.123 82.3134 118.659 82.6948 117.992 82.6948C117.81 82.6948 117.589 82.6601 117.329 82.5908L117.394 81.7978C117.55 81.8324 117.658 81.8498 117.719 81.8498C118.074 81.8498 118.343 81.6851 118.525 81.3558C118.707 81.0264 118.828 80.6191 118.889 80.1338C118.95 79.6484 119.002 79.0071 119.045 78.2098L119.162 75.7658H124.167ZM130.193 75.7658H131.116V81.1998L135.679 75.7658H136.498V82.6038H135.575V77.1698L131.025 82.6038H130.193V75.7658ZM142.546 75.7658H143.469V81.1998L148.032 75.7658H148.851V82.6038H147.928V77.1698L143.378 82.6038H142.546V75.7658ZM154.356 82.6688C153.68 82.6688 153.073 82.5214 152.536 82.2268C152.007 81.9321 151.591 81.5204 151.288 80.9918C150.985 80.4544 150.833 79.8521 150.833 79.1848C150.833 78.5174 150.985 77.9194 151.288 77.3908C151.591 76.8621 152.007 76.4504 152.536 76.1558C153.073 75.8611 153.68 75.7138 154.356 75.7138C154.945 75.7138 155.47 75.8308 155.929 76.0648C156.397 76.2901 156.765 76.6238 157.034 77.0658L156.345 77.5338C156.12 77.1958 155.834 76.9444 155.487 76.7798C155.14 76.6064 154.763 76.5198 154.356 76.5198C153.862 76.5198 153.416 76.6324 153.017 76.8578C152.627 77.0744 152.319 77.3864 152.094 77.7938C151.877 78.2011 151.769 78.6648 151.769 79.1848C151.769 79.7134 151.877 80.1814 152.094 80.5888C152.319 80.9874 152.627 81.2994 153.017 81.5248C153.416 81.7414 153.862 81.8498 154.356 81.8498C154.763 81.8498 155.14 81.7674 155.487 81.6028C155.834 81.4381 156.12 81.1868 156.345 80.8488L157.034 81.3168C156.765 81.7588 156.397 82.0968 155.929 82.3308C155.461 82.5561 154.937 82.6688 154.356 82.6688ZM161.567 82.6688C160.891 82.6688 160.284 82.5214 159.747 82.2268C159.218 81.9321 158.802 81.5204 158.499 80.9918C158.196 80.4544 158.044 79.8521 158.044 79.1848C158.044 78.5174 158.196 77.9194 158.499 77.3908C158.802 76.8621 159.218 76.4504 159.747 76.1558C160.284 75.8611 160.891 75.7138 161.567 75.7138C162.156 75.7138 162.681 75.8308 163.14 76.0648C163.608 76.2901 163.976 76.6238 164.245 77.0658L163.556 77.5338C163.331 77.1958 163.045 76.9444 162.698 76.7798C162.351 76.6064 161.974 76.5198 161.567 76.5198C161.073 76.5198 160.627 76.6324 160.228 76.8578C159.838 77.0744 159.53 77.3864 159.305 77.7938C159.088 78.2011 158.98 78.6648 158.98 79.1848C158.98 79.7134 159.088 80.1814 159.305 80.5888C159.53 80.9874 159.838 81.2994 160.228 81.5248C160.627 81.7414 161.073 81.8498 161.567 81.8498C161.974 81.8498 162.351 81.7674 162.698 81.6028C163.045 81.4381 163.331 81.1868 163.556 80.8488L164.245 81.3168C163.976 81.7588 163.608 82.0968 163.14 82.3308C162.672 82.5561 162.148 82.6688 161.567 82.6688ZM171.394 75.7658V82.6038H170.471V76.5848H167.195L167.104 78.2748C167.034 79.6961 166.87 80.7881 166.61 81.5508C166.35 82.3134 165.886 82.6948 165.219 82.6948C165.037 82.6948 164.816 82.6601 164.556 82.5908L164.621 81.7978C164.777 81.8324 164.885 81.8498 164.946 81.8498C165.301 81.8498 165.57 81.6851 165.752 81.3558C165.934 81.0264 166.055 80.6191 166.116 80.1338C166.176 79.6484 166.228 79.0071 166.272 78.2098L166.389 75.7658H171.394ZM179.998 79.4708H174.278C174.33 80.1814 174.603 80.7578 175.097 81.1998C175.591 81.6331 176.215 81.8498 176.969 81.8498C177.393 81.8498 177.783 81.7761 178.139 81.6288C178.494 81.4728 178.802 81.2474 179.062 80.9528L179.582 81.5508C179.278 81.9148 178.897 82.1921 178.438 82.3828C177.987 82.5734 177.489 82.6688 176.943 82.6688C176.241 82.6688 175.617 82.5214 175.071 82.2268C174.533 81.9234 174.113 81.5074 173.81 80.9788C173.506 80.4501 173.355 79.8521 173.355 79.1848C173.355 78.5174 173.498 77.9194 173.784 77.3908C174.078 76.8621 174.477 76.4504 174.98 76.1558C175.491 75.8611 176.063 75.7138 176.696 75.7138C177.328 75.7138 177.896 75.8611 178.399 76.1558C178.901 76.4504 179.296 76.8621 179.582 77.3908C179.868 77.9108 180.011 78.5088 180.011 79.1848L179.998 79.4708ZM176.696 76.5068C176.037 76.5068 175.482 76.7191 175.032 77.1438C174.59 77.5598 174.338 78.1058 174.278 78.7818H179.127C179.066 78.1058 178.81 77.5598 178.36 77.1438C177.918 76.7191 177.363 76.5068 176.696 76.5068ZM188.583 81.7978V84.2548H187.712V82.6038H181.589V84.2548H180.718V81.7978H181.108C181.567 81.7718 181.879 81.4338 182.044 80.7838C182.209 80.1338 182.321 79.2238 182.382 78.0538L182.473 75.7658H187.517V81.7978H188.583ZM183.227 78.1058C183.184 79.0764 183.101 79.8781 182.98 80.5108C182.859 81.1348 182.642 81.5638 182.33 81.7978H186.594V76.5848H183.305L183.227 78.1058ZM193.203 82.6688C192.544 82.6688 191.951 82.5214 191.422 82.2268C190.893 81.9234 190.477 81.5074 190.174 80.9788C189.871 80.4501 189.719 79.8521 189.719 79.1848C189.719 78.5174 189.871 77.9194 190.174 77.3908C190.477 76.8621 190.893 76.4504 191.422 76.1558C191.951 75.8611 192.544 75.7138 193.203 75.7138C193.862 75.7138 194.455 75.8611 194.984 76.1558C195.513 76.4504 195.924 76.8621 196.219 77.3908C196.522 77.9194 196.674 78.5174 196.674 79.1848C196.674 79.8521 196.522 80.4501 196.219 80.9788C195.924 81.5074 195.513 81.9234 194.984 82.2268C194.455 82.5214 193.862 82.6688 193.203 82.6688ZM193.203 81.8498C193.688 81.8498 194.122 81.7414 194.503 81.5248C194.893 81.2994 195.196 80.9831 195.413 80.5758C195.63 80.1684 195.738 79.7048 195.738 79.1848C195.738 78.6648 195.63 78.2011 195.413 77.7938C195.196 77.3864 194.893 77.0744 194.503 76.8578C194.122 76.6324 193.688 76.5198 193.203 76.5198C192.718 76.5198 192.28 76.6324 191.89 76.8578C191.509 77.0744 191.205 77.3864 190.98 77.7938C190.763 78.2011 190.655 78.6648 190.655 79.1848C190.655 79.7048 190.763 80.1684 190.98 80.5758C191.205 80.9831 191.509 81.2994 191.89 81.5248C192.28 81.7414 192.718 81.8498 193.203 81.8498ZM203.001 79.0678C203.929 79.2844 204.392 79.8434 204.392 80.7448C204.392 81.3428 204.171 81.8021 203.729 82.1228C203.287 82.4434 202.629 82.6038 201.753 82.6038H198.646V75.7658H201.662C202.442 75.7658 203.053 75.9174 203.495 76.2208C203.937 76.5241 204.158 76.9574 204.158 77.5208C204.158 77.8934 204.054 78.2141 203.846 78.4828C203.647 78.7428 203.365 78.9378 203.001 79.0678ZM199.543 78.8078H201.597C202.126 78.8078 202.529 78.7081 202.806 78.5088C203.092 78.3094 203.235 78.0191 203.235 77.6378C203.235 77.2564 203.092 76.9704 202.806 76.7798C202.529 76.5891 202.126 76.4938 201.597 76.4938H199.543V78.8078ZM201.714 81.8758C202.304 81.8758 202.746 81.7804 203.04 81.5898C203.335 81.3991 203.482 81.1001 203.482 80.6928C203.482 80.2854 203.348 79.9864 203.079 79.7958C202.811 79.5964 202.386 79.4968 201.805 79.4968H199.543V81.8758H201.714ZM208.909 75.7138C209.801 75.7138 210.486 75.9391 210.963 76.3898C211.439 76.8318 211.678 77.4904 211.678 78.3658V82.6038H210.794V81.5378C210.586 81.8931 210.278 82.1704 209.871 82.3698C209.472 82.5691 208.995 82.6688 208.441 82.6688C207.678 82.6688 207.071 82.4868 206.621 82.1228C206.17 81.7588 205.945 81.2778 205.945 80.6798C205.945 80.0991 206.153 79.6311 206.569 79.2758C206.993 78.9204 207.665 78.7428 208.584 78.7428H210.755V78.3268C210.755 77.7374 210.59 77.2911 210.261 76.9878C209.931 76.6758 209.45 76.5198 208.818 76.5198C208.384 76.5198 207.968 76.5934 207.57 76.7408C207.171 76.8794 206.829 77.0744 206.543 77.3258L206.127 76.6368C206.473 76.3421 206.889 76.1168 207.375 75.9608C207.86 75.7961 208.371 75.7138 208.909 75.7138ZM208.584 81.9408C209.104 81.9408 209.55 81.8238 209.923 81.5898C210.295 81.3471 210.573 81.0004 210.755 80.5498V79.4318H208.61C207.44 79.4318 206.855 79.8391 206.855 80.6538C206.855 81.0524 207.006 81.3688 207.31 81.6028C207.613 81.8281 208.038 81.9408 208.584 81.9408ZM214.135 75.7658H215.058V78.7948H219.361V75.7658H220.284V82.6038H219.361V79.5878H215.058V82.6038H214.135V75.7658ZM222.907 75.7658H223.83V81.1998L228.393 75.7658H229.212V82.6038H228.289V77.1698L223.739 82.6038H222.907V75.7658ZM237.109 75.7658V82.6038H236.264V80.3418H234.119H233.859L232.273 82.6038H231.272L232.975 80.2118C232.447 80.0644 232.039 79.8131 231.753 79.4578C231.467 79.1024 231.324 78.6518 231.324 78.1058C231.324 77.3431 231.584 76.7624 232.104 76.3638C232.624 75.9651 233.335 75.7658 234.236 75.7658H237.109ZM232.26 78.1318C232.26 79.1458 232.906 79.6528 234.197 79.6528H236.264V76.5848H234.262C232.928 76.5848 232.26 77.1004 232.26 78.1318ZM249.813 81.7978V84.2548H248.942V82.6038H242.819V84.2548H241.948V81.7978H242.338C242.797 81.7718 243.109 81.4338 243.274 80.7838C243.438 80.1338 243.551 79.2238 243.612 78.0538L243.703 75.7658H248.747V81.7978H249.813ZM244.457 78.1058C244.413 79.0764 244.331 79.8781 244.21 80.5108C244.088 81.1348 243.872 81.5638 243.56 81.7978H247.824V76.5848H244.535L244.457 78.1058ZM253.964 75.7138C254.857 75.7138 255.542 75.9391 256.018 76.3898C256.495 76.8318 256.733 77.4904 256.733 78.3658V82.6038H255.849V81.5378C255.641 81.8931 255.334 82.1704 254.926 82.3698C254.528 82.5691 254.051 82.6688 253.496 82.6688C252.734 82.6688 252.127 82.4868 251.676 82.1228C251.226 81.7588 251 81.2778 251 80.6798C251 80.0991 251.208 79.6311 251.624 79.2758C252.049 78.9204 252.721 78.7428 253.639 78.7428H255.81V78.3268C255.81 77.7374 255.646 77.2911 255.316 76.9878C254.987 76.6758 254.506 76.5198 253.873 76.5198C253.44 76.5198 253.024 76.5934 252.625 76.7408C252.227 76.8794 251.884 77.0744 251.598 77.3258L251.182 76.6368C251.529 76.3421 251.945 76.1168 252.43 75.9608C252.916 75.7961 253.427 75.7138 253.964 75.7138ZM253.639 81.9408C254.159 81.9408 254.606 81.8238 254.978 81.5898C255.351 81.3471 255.628 81.0004 255.81 80.5498V79.4318H253.665C252.495 79.4318 251.91 79.8391 251.91 80.6538C251.91 81.0524 252.062 81.3688 252.365 81.6028C252.669 81.8281 253.093 81.9408 253.639 81.9408ZM259.19 75.7658H260.113V78.7948H264.416V75.7658H265.339V82.6038H264.416V79.5878H260.113V82.6038H259.19V75.7658ZM267.963 75.7658H268.886V78.7948H273.189V75.7658H274.112V82.6038H273.189V79.5878H268.886V82.6038H267.963V75.7658ZM279.608 78.1838C280.466 78.1924 281.121 78.3831 281.571 78.7558C282.022 79.1284 282.247 79.6658 282.247 80.3678C282.247 81.0958 282.005 81.6548 281.519 82.0448C281.034 82.4348 280.341 82.6254 279.439 82.6168L276.735 82.6038V75.7658H277.658V78.1578L279.608 78.1838ZM283.391 75.7658H284.314V82.6038H283.391V75.7658ZM279.387 81.9148C280.02 81.9234 280.497 81.7978 280.817 81.5378C281.147 81.2691 281.311 80.8791 281.311 80.3678C281.311 79.8651 281.151 79.4924 280.83 79.2498C280.51 79.0071 280.029 78.8814 279.387 78.8728L277.658 78.8468V81.8888L279.387 81.9148ZM291.219 82.6038L289.048 79.7438L286.864 82.6038H285.824L288.528 79.0938L285.954 75.7658H286.994L289.048 78.4438L291.102 75.7658H292.116L289.542 79.0938L292.272 82.6038H291.219Z" fill="#222222"/>
<defs>
<radialGradient id="paint0_radial" cx="0" cy="0" r="1" gradientUnits="userSpaceOnUse" gradientTransform="translate(26.4729 30.1251) scale(25.4121)">
<stop stop-color="#E2DDE0"/>
<stop offset="0.5222" stop-color="#EFE9EC"/>
<stop offset="1" stop-color="#F4EDF0"/>
</radialGradient>
<linearGradient id="paint1_linear" x1="11.6351" y1="30.8834" x2="39.1549" y2="30.8834" gradientUnits="userSpaceOnUse">
<stop stop-color="#7849C1"/>
<stop offset="0.2798" stop-color="#7343BE"/>
<stop offset="0.6606" stop-color="#6731B4"/>
<stop offset="1" stop-color="#571CA8"/>
</linearGradient>
<linearGradient id="paint2_linear" x1="5.77453" y1="31.599" x2="46.0465" y2="31.599" gradientUnits="userSpaceOnUse">
<stop stop-color="#571CA8"/>
<stop offset="0.0196562" stop-color="#5E23AE"/>
<stop offset="0.0896959" stop-color="#7035BF"/>
<stop offset="0.1726" stop-color="#7D42CA"/>
<stop offset="0.28" stop-color="#854AD1"/>
<stop offset="0.5" stop-color="#874CD3"/>
<stop offset="0.6836" stop-color="#8449D1"/>
<stop offset="0.804" stop-color="#7C41C9"/>
<stop offset="0.9059" stop-color="#6D32BB"/>
<stop offset="0.9976" stop-color="#581DA9"/>
<stop offset="1" stop-color="#571CA8"/>
</linearGradient>
</defs>
</svg>
