<svg width="272" height="75" viewBox="0 0 272 75" fill="none" xmlns="http://www.w3.org/2000/svg">
<path d="M93.9973 23.2052L104.58 44.8782H103.592L99.5849 36.8073H88.2687L84.3179 44.8782H83.443L93.9973 23.2052ZM93.9127 25.1524L88.6355 35.9889H99.2462L93.9127 25.1524ZM107.397 50.5222V32.1792H108.3V35.2834C108.808 34.2486 109.598 33.4209 110.67 32.8C111.762 32.1792 112.89 31.8688 114.057 31.8688C115.919 31.8688 117.5 32.5272 118.798 33.8442C120.115 35.1423 120.773 36.7038 120.773 38.5287C120.773 40.3536 120.115 41.9245 118.798 43.2414C117.5 44.5395 115.919 45.1886 114.057 45.1886C112.928 45.1886 111.828 44.8876 110.755 44.2856C109.683 43.6647 108.864 42.8369 108.3 41.8022V50.5222H107.397ZM108.244 38.5569C108.244 40.1372 108.817 41.5106 109.965 42.677C111.131 43.8246 112.505 44.3984 114.085 44.3984C115.684 44.3984 117.048 43.8246 118.177 42.677C119.306 41.5106 119.87 40.1372 119.87 38.5569C119.87 36.9578 119.296 35.575 118.149 34.4086C117.02 33.2421 115.665 32.6589 114.085 32.6589C112.505 32.6589 111.131 33.2515 109.965 34.4368C108.817 35.6032 108.244 36.9766 108.244 38.5569ZM128.558 37.1741L133.666 44.8782H132.622L128.05 37.9643L123.507 44.8782H122.604L127.599 37.2588L124.241 32.1792H125.285L128.107 36.4686L130.929 32.1792H131.832L128.558 37.1741ZM147.307 32.2074V44.8782H146.432V33.6184L137.289 44.8782H136.499V32.2074H137.374V43.4672L146.489 32.2074H147.307ZM159.081 24.5316H152.477V44.8782H151.546V23.7132H159.081V24.5316ZM158.16 50.5222V32.1792H159.063V35.2834C159.571 34.2486 160.361 33.4209 161.433 32.8C162.525 32.1792 163.653 31.8688 164.82 31.8688C166.682 31.8688 168.263 32.5272 169.561 33.8442C170.878 35.1423 171.536 36.7038 171.536 38.5287C171.536 40.3536 170.878 41.9245 169.561 43.2414C168.263 44.5395 166.682 45.1886 164.82 45.1886C163.691 45.1886 162.59 44.8876 161.518 44.2856C160.446 43.6647 159.627 42.8369 159.063 41.8022V50.5222H158.16ZM159.007 38.5569C159.007 40.1372 159.58 41.5106 160.728 42.677C161.894 43.8246 163.268 44.3984 164.848 44.3984C166.447 44.3984 167.811 43.8246 168.94 42.677C170.069 41.5106 170.633 40.1372 170.633 38.5569C170.633 36.9578 170.059 35.575 168.912 34.4086C167.783 33.2421 166.428 32.6589 164.848 32.6589C163.268 32.6589 161.894 33.2515 160.728 34.4368C159.58 35.6032 159.007 36.9766 159.007 38.5569ZM187.166 32.1792V44.8782H186.263V41.7175C185.737 42.7899 184.946 43.6365 183.893 44.2573C182.839 44.8782 181.71 45.1886 180.506 45.1886C178.663 45.1886 177.082 44.5395 175.765 43.2414C174.449 41.9245 173.79 40.3536 173.79 38.5287C173.79 36.7038 174.449 35.1423 175.765 33.8442C177.082 32.5272 178.663 31.8688 180.506 31.8688C181.71 31.8688 182.858 32.1886 183.949 32.8282C185.059 33.4679 185.831 34.3145 186.263 35.368V32.1792H187.166ZM174.693 38.5569C174.693 40.1372 175.267 41.5106 176.414 42.677C177.581 43.8246 178.954 44.3984 180.535 44.3984C182.134 44.3984 183.498 43.8246 184.627 42.677C185.755 41.5106 186.32 40.1372 186.32 38.5569C186.32 36.9578 185.746 35.575 184.598 34.4086C183.469 33.2421 182.115 32.6589 180.535 32.6589C178.954 32.6589 177.581 33.2515 176.414 34.4368C175.267 35.6032 174.693 36.9766 174.693 38.5569ZM197.435 27.1278H198.338V31.8688H198.479C200.322 31.8688 201.884 32.5178 203.163 33.8159C204.461 35.0952 205.11 36.6379 205.11 38.444C205.11 40.2313 204.471 41.7834 203.192 43.1003C201.931 44.3984 200.379 45.0475 198.535 45.0475H198.338V50.4657H197.435V45.0475H197.209C195.346 45.0475 193.747 44.389 192.411 43.0721C191.076 41.7552 190.408 40.2125 190.408 38.444C190.408 36.6567 191.076 35.1141 192.411 33.8159C193.766 32.5178 195.365 31.8688 197.209 31.8688H197.435V27.1278ZM197.435 32.6589H197.209C195.629 32.6589 194.236 33.2421 193.032 34.4086C191.847 35.5562 191.254 36.9107 191.254 38.4722C191.254 40.0337 191.847 41.3883 193.032 42.5359C194.236 43.6835 195.629 44.2573 197.209 44.2573H197.435V32.6589ZM198.338 32.6589V44.2573H198.507C200.087 44.2573 201.432 43.6929 202.542 42.5641C203.671 41.4165 204.236 40.0526 204.236 38.4722C204.236 36.8919 203.671 35.5279 202.542 34.3803C201.414 33.2327 200.059 32.6589 198.479 32.6589H198.338ZM208.175 45.0757C207.535 45.0757 207.215 44.7841 207.215 44.2009C207.215 43.6177 207.535 43.3261 208.175 43.3261C208.833 43.3261 209.162 43.6177 209.162 44.2009C209.162 44.7841 208.833 45.0757 208.175 45.0757Z" fill="#231F21"/>
<path d="M235.641 23.7056V44.8706H234.71V24.8062L224.72 45.2657L214.787 24.8062V44.8706H213.94V23.7056H215.295L224.805 43.2338L234.343 23.7056H235.641ZM250.681 32.1998V44.8706H249.806V33.6108L240.663 44.8706H239.873V32.1998H240.747V43.4596L249.863 32.1998H250.681ZM254.92 50.5146V32.1716H255.823V35.2758C256.331 34.2411 257.121 33.4133 258.193 32.7924C259.284 32.1716 260.413 31.8612 261.58 31.8612C263.442 31.8612 265.022 32.5197 266.32 33.8366C267.637 35.1347 268.296 36.6962 268.296 38.5211C268.296 40.346 267.637 41.9169 266.32 43.2338C265.022 44.532 263.442 45.181 261.58 45.181C260.451 45.181 259.35 44.88 258.278 44.278C257.205 43.6571 256.387 42.8294 255.823 41.7946V50.5146H254.92ZM255.766 38.5493C255.766 40.1296 256.34 41.503 257.488 42.6694C258.654 43.8171 260.027 44.3909 261.608 44.3909C263.207 44.3909 264.571 43.8171 265.7 42.6694C266.828 41.503 267.393 40.1296 267.393 38.5493C267.393 36.9502 266.819 35.5674 265.671 34.401C264.543 33.2346 263.188 32.6513 261.608 32.6513C260.027 32.6513 258.654 33.244 257.488 34.4292C256.34 35.5956 255.766 36.969 255.766 38.5493Z" fill="#FC8215"/>
<path d="M235.641 23.7056H236.391V22.9556H235.641V23.7056ZM235.641 44.8706V45.6206H236.391V44.8706H235.641ZM234.71 44.8706H233.96V45.6206H234.71V44.8706ZM234.71 24.8062H235.46V21.5608L234.036 24.4771L234.71 24.8062ZM224.72 45.2657L224.045 45.5933L224.718 46.9789L225.394 45.5948L224.72 45.2657ZM214.787 24.8062L215.461 24.4786L214.037 21.5443V24.8062H214.787ZM214.787 44.8706V45.6206H215.537V44.8706H214.787ZM213.94 44.8706H213.19V45.6206H213.94V44.8706ZM213.94 23.7056V22.9556H213.19V23.7056H213.94ZM215.295 23.7056L215.969 23.3772L215.764 22.9556H215.295V23.7056ZM224.805 43.2338L224.13 43.5622L224.804 44.9448L225.479 43.563L224.805 43.2338ZM234.343 23.7056V22.9556H233.875L233.669 23.3764L234.343 23.7056ZM234.891 23.7056V44.8706H236.391V23.7056H234.891ZM235.641 44.1206H234.71V45.6206H235.641V44.1206ZM235.46 44.8706V24.8062H233.96V44.8706H235.46ZM234.036 24.4771L224.046 44.9366L225.394 45.5948L235.384 25.1353L234.036 24.4771ZM225.395 44.9381L215.461 24.4786L214.112 25.1338L224.045 45.5933L225.395 44.9381ZM214.037 24.8062V44.8706H215.537V24.8062H214.037ZM214.787 44.1206H213.94V45.6206H214.787V44.1206ZM214.69 44.8706V23.7056H213.19V44.8706H214.69ZM213.94 24.4556H215.295V22.9556H213.94V24.4556ZM214.62 24.034L224.13 43.5622L225.479 42.9055L215.969 23.3772L214.62 24.034ZM225.479 43.563L235.017 24.0348L233.669 23.3764L224.131 42.9047L225.479 43.563ZM234.343 24.4556H235.641V22.9556H234.343V24.4556ZM250.681 32.1998H251.431V31.4498H250.681V32.1998ZM250.681 44.8706V45.6206H251.431V44.8706H250.681ZM249.806 44.8706H249.056V45.6206H249.806V44.8706ZM249.806 33.6108H250.556V31.4974L249.224 33.138L249.806 33.6108ZM240.663 44.8706V45.6206H241.02L241.245 45.3434L240.663 44.8706ZM239.873 44.8706H239.123V45.6206H239.873V44.8706ZM239.873 32.1998V31.4498H239.123V32.1998H239.873ZM240.747 32.1998H241.497V31.4498H240.747V32.1998ZM240.747 43.4596H239.997V45.5781L241.33 43.9315L240.747 43.4596ZM249.863 32.1998V31.4498H249.505L249.28 31.7279L249.863 32.1998ZM249.931 32.1998V44.8706H251.431V32.1998H249.931ZM250.681 44.1206H249.806V45.6206H250.681V44.1206ZM250.556 44.8706V33.6108H249.056V44.8706H250.556ZM249.224 33.138L240.081 44.3978L241.245 45.3434L250.388 34.0836L249.224 33.138ZM240.663 44.1206H239.873V45.6206H240.663V44.1206ZM240.623 44.8706V32.1998H239.123V44.8706H240.623ZM239.873 32.9498H240.747V31.4498H239.873V32.9498ZM239.997 32.1998V43.4596H241.497V32.1998H239.997ZM241.33 43.9315L250.445 32.6717L249.28 31.7279L240.165 42.9877L241.33 43.9315ZM249.863 32.9498H250.681V31.4498H249.863V32.9498ZM254.92 50.5146H254.17V51.2646H254.92V50.5146ZM254.92 32.1716V31.4216H254.17V32.1716H254.92ZM255.823 32.1716H256.573V31.4216H255.823V32.1716ZM255.823 35.2758H255.073V38.5055L256.496 35.6063L255.823 35.2758ZM258.193 32.7924L257.822 32.1406L257.817 32.1434L258.193 32.7924ZM266.32 33.8366L265.786 34.3631L265.794 34.3707L266.32 33.8366ZM266.32 43.2338L266.851 43.7642L266.32 43.2338ZM258.278 44.278L257.902 44.9271L257.911 44.932L258.278 44.278ZM255.823 41.7946L256.481 41.4355L255.073 38.8534V41.7946H255.823ZM255.823 50.5146V51.2646H256.573V50.5146H255.823ZM257.488 42.6694L256.953 43.1955L256.962 43.2041L257.488 42.6694ZM265.7 42.6694L266.234 43.1954L266.239 43.191L265.7 42.6694ZM265.671 34.401L265.132 34.9226L265.137 34.927L265.671 34.401ZM257.488 34.4292L256.953 33.9031L256.953 33.9032L257.488 34.4292ZM255.67 50.5146V32.1716H254.17V50.5146H255.67ZM254.92 32.9216H255.823V31.4216H254.92V32.9216ZM255.073 32.1716V35.2758H256.573V32.1716H255.073ZM256.496 35.6063C256.933 34.715 257.615 33.9938 258.569 33.4415L257.817 32.1434C256.627 32.8328 255.728 33.7672 255.149 34.9453L256.496 35.6063ZM258.564 33.4443C259.551 32.8827 260.553 32.6112 261.58 32.6112V31.1112C260.273 31.1112 259.018 31.4605 257.822 32.1406L258.564 33.4443ZM261.58 32.6112C263.243 32.6112 264.63 33.1903 265.786 34.3631L266.855 33.3101C265.414 31.849 263.641 31.1112 261.58 31.1112V32.6112ZM265.794 34.3707C266.97 35.53 267.546 36.9 267.546 38.5211H269.046C269.046 36.4924 268.305 34.7394 266.847 33.3025L265.794 34.3707ZM267.546 38.5211C267.546 40.1425 266.97 41.524 265.79 42.7035L266.851 43.7642C268.305 42.3098 269.046 40.5495 269.046 38.5211H267.546ZM265.79 42.7035C264.635 43.8587 263.246 44.431 261.58 44.431V45.931C263.638 45.931 265.41 45.2052 266.851 43.7642L265.79 42.7035ZM261.58 44.431C260.591 44.431 259.615 44.1689 258.645 43.624L257.911 44.932C259.085 45.5912 260.311 45.931 261.58 45.931V44.431ZM258.654 43.6289C257.694 43.0733 256.976 42.3432 256.481 41.4355L255.164 42.1538C255.798 43.3155 256.717 44.241 257.902 44.9271L258.654 43.6289ZM255.073 41.7946V50.5146H256.573V41.7946H255.073ZM255.823 49.7646H254.92V51.2646H255.823V49.7646ZM255.016 38.5493C255.016 40.3341 255.673 41.8943 256.953 43.1954L258.022 42.1434C257.007 41.1118 256.516 39.9252 256.516 38.5493H255.016ZM256.962 43.2041C258.263 44.4843 259.823 45.1409 261.608 45.1409V43.6409C260.232 43.6409 259.045 43.1499 258.014 42.1348L256.962 43.2041ZM261.608 45.1409C263.409 45.1409 264.966 44.4853 266.234 43.1954L265.165 42.1435C264.176 43.1489 263.004 43.6409 261.608 43.6409V45.1409ZM266.239 43.191C267.499 41.8889 268.143 40.3301 268.143 38.5493H266.643C266.643 39.9292 266.158 41.1171 265.161 42.1479L266.239 43.191ZM268.143 38.5493C268.143 36.7483 267.488 35.178 266.206 33.875L265.137 34.927C266.15 35.9568 266.643 37.1521 266.643 38.5493H268.143ZM266.21 33.8794C264.945 32.5714 263.397 31.9013 261.608 31.9013V33.4013C262.979 33.4013 264.141 33.8977 265.132 34.9226L266.21 33.8794ZM261.608 31.9013C259.815 31.9013 258.252 32.583 256.953 33.9031L258.022 34.9553C259.056 33.9049 260.24 33.4013 261.608 33.4013V31.9013ZM256.953 33.9032C255.673 35.2044 255.016 36.7646 255.016 38.5493H256.516C256.516 37.1734 257.007 35.9869 258.022 34.9552L256.953 33.9032Z" fill="#FC8215"/>
<path d="M62.0834 12.7078V29.9091L44.8821 12.7078H62.0834Z" fill="#FC8215"/>
<path d="M40.2775 65.7378L65.7675 40.2478C67.6095 41.7035 70.2832 41.5847 71.9766 39.8913C73.7888 38.079 73.7888 35.1082 71.9766 33.2663C70.1644 31.454 67.1935 31.454 65.3516 33.2663C64.5495 34.0684 64.1038 35.2864 64.0147 36.3262H46.1004V37.2175H64.0147C64.1038 38.1385 64.4603 38.8812 65.1139 39.6239L39.6536 65.0842C38.9109 64.4306 37.9899 64.0741 37.069 63.985L37.1284 48.2394H36.2371L36.1777 63.985C35.227 64.0741 34.3061 64.4306 33.5633 65.0842L8.22187 39.7427C8.84575 39 9.23197 38.1385 9.32109 37.2175H22.3632V36.3262H9.35079C9.29138 35.4053 8.93487 34.4843 8.31099 33.7416L33.7713 8.28128C34.514 8.87545 35.3756 9.23196 36.2965 9.32108L36.2371 27.4731H37.1284L37.1878 9.32108C38.2276 9.23196 39.2674 8.78633 40.0695 7.98419C41.8818 6.17197 41.8818 3.20111 40.0695 1.35917C38.2573 -0.453057 35.2864 -0.453057 33.4445 1.35917C31.7214 3.08227 31.6323 5.81546 33.1474 7.6574L7.68712 33.1177C5.84518 31.5729 3.11198 31.662 1.35917 33.3851C-0.453057 35.1973 -0.453057 38.1682 1.35917 40.0101C3.05256 41.7035 5.72634 41.8223 7.56828 40.3666L32.9395 65.7378C31.4837 67.5797 31.6026 70.2535 33.296 71.9469C35.1082 73.7591 38.0791 73.7591 39.921 71.9469C41.5847 70.2535 41.7035 67.5797 40.2775 65.7378ZM65.9755 33.8901C67.4609 32.4047 69.8673 32.4047 71.323 33.8901C72.8084 35.3756 72.8084 37.782 71.323 39.2377C69.8376 40.7231 67.4312 40.7231 65.9755 39.2377C64.49 37.782 64.49 35.3756 65.9755 33.8901ZM34.0684 1.98305C35.5538 0.497622 37.9602 0.497622 39.4159 1.98305C40.9014 3.46849 40.9014 5.87489 39.4159 7.33061C37.9305 8.81604 35.5241 8.81604 34.0684 7.33061C32.583 5.87489 32.583 3.46849 34.0684 1.98305ZM1.98305 39.3565C0.497622 37.8711 0.497622 35.4647 1.98305 34.009C3.46849 32.5235 5.87489 32.5235 7.33061 34.009C8.81604 35.4944 8.81604 37.9008 7.33061 39.3565C5.84518 40.842 3.46849 40.842 1.98305 39.3565ZM33.9198 71.2933C32.4344 69.8079 32.4344 67.4015 33.9198 65.9458C35.4053 64.49 37.8117 64.4603 39.2674 65.9458C40.7528 67.4312 40.7528 69.8376 39.2674 71.2933C37.782 72.7787 35.4053 72.7787 33.9198 71.2933Z" fill="#FC8215"/>
<path d="M39.8914 7.83545L65.827 33.7414" stroke="#FC8215" stroke-miterlimit="10"/>
<path d="M41.7632 43.5454C44.9717 39.4159 49.2498 34.8408 49.2498 34.8408L45.7739 31.3649C45.7739 31.3649 42.6545 34.6922 41.0799 36.6233C39.3568 37.5443 37.2772 38.3761 35.257 38.8217C34.2172 39.0594 33.1774 39.4456 32.1673 39.8615C32.9397 38.6732 33.7716 37.4551 34.6034 36.3856C37.812 32.2561 42.09 27.681 42.09 27.681L38.6141 24.2051C38.6141 24.2051 36.0889 26.8194 34.9896 28.1563C32.9694 29.1664 29.7015 29.6418 26.7306 30.3251C23.0468 31.1569 19.7788 34.6922 19.7788 34.6922L22.304 37.2175C22.304 37.2175 25.78 33.0583 27.6813 31.6917C29.137 30.6221 32.6129 29.6418 34.0984 29.2555C32.9695 30.6519 31.7217 32.167 30.9493 33.2068C29.1073 35.7023 26.0176 40.8122 26.0176 40.8122L27.5328 42.3273L29.4638 44.2584L30.058 44.8526C30.058 44.8526 32.0782 41.7629 35.2273 40.3072C36.2968 39.8021 38.317 38.792 40.0401 37.8711C39.2974 38.792 38.5844 39.6833 38.0793 40.3666C36.2374 42.8621 33.1477 47.972 33.1477 47.972L36.5939 51.4182C36.6533 51.3885 39.3271 46.6648 41.7632 43.5454Z" fill="url(#paint0_linear)"/>
<path d="M90.94 62.9C92.1013 62.9 93.0113 63.1773 93.67 63.732C94.3287 64.2867 94.658 65.0493 94.658 66.02C94.658 66.9907 94.3287 67.7533 93.67 68.308C93.0113 68.854 92.1013 69.127 90.94 69.127H88.496V72H87.534V62.9H90.94ZM90.914 68.282C91.8153 68.282 92.5043 68.087 92.981 67.697C93.4577 67.2983 93.696 66.7393 93.696 66.02C93.696 65.2833 93.4577 64.72 92.981 64.33C92.5043 63.9313 91.8153 63.732 90.914 63.732H88.496V68.282H90.914ZM102.357 68.867H96.6375C96.6895 69.5777 96.9625 70.154 97.4565 70.596C97.9505 71.0293 98.5745 71.246 99.3285 71.246C99.7531 71.246 100.143 71.1723 100.498 71.025C100.854 70.869 101.161 70.6437 101.421 70.349L101.941 70.947C101.638 71.311 101.257 71.5883 100.797 71.779C100.347 71.9697 99.8485 72.065 99.3025 72.065C98.6005 72.065 97.9765 71.9177 97.4305 71.623C96.8931 71.3197 96.4728 70.9037 96.1695 70.375C95.8661 69.8463 95.7145 69.2483 95.7145 68.581C95.7145 67.9137 95.8575 67.3157 96.1435 66.787C96.4381 66.2583 96.8368 65.8467 97.3395 65.552C97.8508 65.2573 98.4228 65.11 99.0555 65.11C99.6881 65.11 100.256 65.2573 100.758 65.552C101.261 65.8467 101.655 66.2583 101.941 66.787C102.227 67.307 102.37 67.905 102.37 68.581L102.357 68.867ZM99.0555 65.903C98.3968 65.903 97.8421 66.1153 97.3915 66.54C96.9495 66.956 96.6981 67.502 96.6375 68.178H101.486C101.426 67.502 101.17 66.956 100.719 66.54C100.277 66.1153 99.7228 65.903 99.0555 65.903ZM110.943 71.194V73.651H110.072V72H103.949V73.651H103.078V71.194H103.468C103.927 71.168 104.239 70.83 104.404 70.18C104.569 69.53 104.681 68.62 104.742 67.45L104.833 65.162H109.877V71.194H110.943ZM105.587 67.502C105.544 68.4727 105.461 69.2743 105.34 69.907C105.219 70.531 105.002 70.96 104.69 71.194H108.954V65.981H105.665L105.587 67.502ZM115.095 65.11C115.987 65.11 116.672 65.3353 117.149 65.786C117.625 66.228 117.864 66.8867 117.864 67.762V72H116.98V70.934C116.772 71.2893 116.464 71.5667 116.057 71.766C115.658 71.9653 115.181 72.065 114.627 72.065C113.864 72.065 113.257 71.883 112.807 71.519C112.356 71.155 112.131 70.674 112.131 70.076C112.131 69.4953 112.339 69.0273 112.755 68.672C113.179 68.3167 113.851 68.139 114.77 68.139H116.941V67.723C116.941 67.1337 116.776 66.6873 116.447 66.384C116.117 66.072 115.636 65.916 115.004 65.916C114.57 65.916 114.154 65.9897 113.756 66.137C113.357 66.2757 113.015 66.4707 112.729 66.722L112.313 66.033C112.659 65.7383 113.075 65.513 113.561 65.357C114.046 65.1923 114.557 65.11 115.095 65.11ZM114.77 71.337C115.29 71.337 115.736 71.22 116.109 70.986C116.481 70.7433 116.759 70.3967 116.941 69.946V68.828H114.796C113.626 68.828 113.041 69.2353 113.041 70.05C113.041 70.4487 113.192 70.765 113.496 70.999C113.799 71.2243 114.224 71.337 114.77 71.337ZM122.804 68.958H121.244V72H120.321V65.162H121.244V68.165H122.817L125.222 65.162H126.223L123.532 68.477L126.418 72H125.326L122.804 68.958ZM132.545 65.981H129.958V72H129.035V65.981H126.448V65.162H132.545V65.981ZM136.383 72.065C135.724 72.065 135.131 71.9177 134.602 71.623C134.073 71.3197 133.657 70.9037 133.354 70.375C133.051 69.8463 132.899 69.2483 132.899 68.581C132.899 67.9137 133.051 67.3157 133.354 66.787C133.657 66.2583 134.073 65.8467 134.602 65.552C135.131 65.2573 135.724 65.11 136.383 65.11C137.042 65.11 137.635 65.2573 138.164 65.552C138.693 65.8467 139.104 66.2583 139.399 66.787C139.702 67.3157 139.854 67.9137 139.854 68.581C139.854 69.2483 139.702 69.8463 139.399 70.375C139.104 70.9037 138.693 71.3197 138.164 71.623C137.635 71.9177 137.042 72.065 136.383 72.065ZM136.383 71.246C136.868 71.246 137.302 71.1377 137.683 70.921C138.073 70.6957 138.376 70.3793 138.593 69.972C138.81 69.5647 138.918 69.101 138.918 68.581C138.918 68.061 138.81 67.5973 138.593 67.19C138.376 66.7827 138.073 66.4707 137.683 66.254C137.302 66.0287 136.868 65.916 136.383 65.916C135.898 65.916 135.46 66.0287 135.07 66.254C134.689 66.4707 134.385 66.7827 134.16 67.19C133.943 67.5973 133.835 68.061 133.835 68.581C133.835 69.101 133.943 69.5647 134.16 69.972C134.385 70.3793 134.689 70.6957 135.07 70.921C135.46 71.1377 135.898 71.246 136.383 71.246ZM145.35 65.11C145.991 65.11 146.572 65.2573 147.092 65.552C147.612 65.838 148.019 66.2453 148.314 66.774C148.608 67.3027 148.756 67.905 148.756 68.581C148.756 69.2657 148.608 69.8723 148.314 70.401C148.019 70.9297 147.612 71.3413 147.092 71.636C146.58 71.922 146 72.065 145.35 72.065C144.795 72.065 144.292 71.9523 143.842 71.727C143.4 71.493 143.036 71.155 142.75 70.713V74.522H141.827V65.162H142.711V66.514C142.988 66.0633 143.352 65.7167 143.803 65.474C144.262 65.2313 144.778 65.11 145.35 65.11ZM145.285 71.246C145.761 71.246 146.195 71.1377 146.585 70.921C146.975 70.6957 147.278 70.3793 147.495 69.972C147.72 69.5647 147.833 69.101 147.833 68.581C147.833 68.061 147.72 67.6017 147.495 67.203C147.278 66.7957 146.975 66.4793 146.585 66.254C146.195 66.0287 145.761 65.916 145.285 65.916C144.799 65.916 144.362 66.0287 143.972 66.254C143.59 66.4793 143.287 66.7957 143.062 67.203C142.845 67.6017 142.737 68.061 142.737 68.581C142.737 69.101 142.845 69.5647 143.062 69.972C143.287 70.3793 143.59 70.6957 143.972 70.921C144.362 71.1377 144.799 71.246 145.285 71.246ZM156.962 72.065C156.303 72.065 155.71 71.9177 155.181 71.623C154.652 71.3197 154.236 70.9037 153.933 70.375C153.63 69.8463 153.478 69.2483 153.478 68.581C153.478 67.9137 153.63 67.3157 153.933 66.787C154.236 66.2583 154.652 65.8467 155.181 65.552C155.71 65.2573 156.303 65.11 156.962 65.11C157.621 65.11 158.214 65.2573 158.743 65.552C159.272 65.8467 159.683 66.2583 159.978 66.787C160.281 67.3157 160.433 67.9137 160.433 68.581C160.433 69.2483 160.281 69.8463 159.978 70.375C159.683 70.9037 159.272 71.3197 158.743 71.623C158.214 71.9177 157.621 72.065 156.962 72.065ZM156.962 71.246C157.447 71.246 157.881 71.1377 158.262 70.921C158.652 70.6957 158.955 70.3793 159.172 69.972C159.389 69.5647 159.497 69.101 159.497 68.581C159.497 68.061 159.389 67.5973 159.172 67.19C158.955 66.7827 158.652 66.4707 158.262 66.254C157.881 66.0287 157.447 65.916 156.962 65.916C156.477 65.916 156.039 66.0287 155.649 66.254C155.268 66.4707 154.964 66.7827 154.739 67.19C154.522 67.5973 154.414 68.061 154.414 68.581C154.414 69.101 154.522 69.5647 154.739 69.972C154.964 70.3793 155.268 70.6957 155.649 70.921C156.039 71.1377 156.477 71.246 156.962 71.246ZM162.406 65.162H163.329V68.191H167.632V65.162H168.555V72H167.632V68.984H163.329V72H162.406V65.162ZM175.988 65.981H173.401V72H172.478V65.981H169.891V65.162H175.988V65.981ZM179.826 72.065C179.168 72.065 178.574 71.9177 178.045 71.623C177.517 71.3197 177.101 70.9037 176.797 70.375C176.494 69.8463 176.342 69.2483 176.342 68.581C176.342 67.9137 176.494 67.3157 176.797 66.787C177.101 66.2583 177.517 65.8467 178.045 65.552C178.574 65.2573 179.168 65.11 179.826 65.11C180.485 65.11 181.079 65.2573 181.607 65.552C182.136 65.8467 182.548 66.2583 182.842 66.787C183.146 67.3157 183.297 67.9137 183.297 68.581C183.297 69.2483 183.146 69.8463 182.842 70.375C182.548 70.9037 182.136 71.3197 181.607 71.623C181.079 71.9177 180.485 72.065 179.826 72.065ZM179.826 71.246C180.312 71.246 180.745 71.1377 181.126 70.921C181.516 70.6957 181.82 70.3793 182.036 69.972C182.253 69.5647 182.361 69.101 182.361 68.581C182.361 68.061 182.253 67.5973 182.036 67.19C181.82 66.7827 181.516 66.4707 181.126 66.254C180.745 66.0287 180.312 65.916 179.826 65.916C179.341 65.916 178.903 66.0287 178.513 66.254C178.132 66.4707 177.829 66.7827 177.603 67.19C177.387 67.5973 177.278 68.061 177.278 68.581C177.278 69.101 177.387 69.5647 177.603 69.972C177.829 70.3793 178.132 70.6957 178.513 70.921C178.903 71.1377 179.341 71.246 179.826 71.246ZM190.822 65.162V72H189.899V65.981H186.623L186.532 67.671C186.463 69.0923 186.298 70.1843 186.038 70.947C185.778 71.7097 185.314 72.091 184.647 72.091C184.465 72.091 184.244 72.0563 183.984 71.987L184.049 71.194C184.205 71.2287 184.313 71.246 184.374 71.246C184.729 71.246 184.998 71.0813 185.18 70.752C185.362 70.4227 185.483 70.0153 185.544 69.53C185.605 69.0447 185.657 68.4033 185.7 67.606L185.817 65.162H190.822ZM196.267 72.065C195.608 72.065 195.014 71.9177 194.486 71.623C193.957 71.3197 193.541 70.9037 193.238 70.375C192.934 69.8463 192.783 69.2483 192.783 68.581C192.783 67.9137 192.934 67.3157 193.238 66.787C193.541 66.2583 193.957 65.8467 194.486 65.552C195.014 65.2573 195.608 65.11 196.267 65.11C196.925 65.11 197.519 65.2573 198.048 65.552C198.576 65.8467 198.988 66.2583 199.283 66.787C199.586 67.3157 199.738 67.9137 199.738 68.581C199.738 69.2483 199.586 69.8463 199.283 70.375C198.988 70.9037 198.576 71.3197 198.048 71.623C197.519 71.9177 196.925 72.065 196.267 72.065ZM196.267 71.246C196.752 71.246 197.185 71.1377 197.567 70.921C197.957 70.6957 198.26 70.3793 198.477 69.972C198.693 69.5647 198.802 69.101 198.802 68.581C198.802 68.061 198.693 67.5973 198.477 67.19C198.26 66.7827 197.957 66.4707 197.567 66.254C197.185 66.0287 196.752 65.916 196.267 65.916C195.781 65.916 195.344 66.0287 194.954 66.254C194.572 66.4707 194.269 66.7827 194.044 67.19C193.827 67.5973 193.719 68.061 193.719 68.581C193.719 69.101 193.827 69.5647 194.044 69.972C194.269 70.3793 194.572 70.6957 194.954 70.921C195.344 71.1377 195.781 71.246 196.267 71.246ZM206.546 65.981H202.633V72H201.71V65.162H206.546V65.981ZM207.88 65.162H208.803V70.596L213.366 65.162H214.185V72H213.262V66.566L208.712 72H207.88V65.162ZM216.831 65.162H217.754V70.596L222.317 65.162H223.136V72H222.213V66.566L217.663 72H216.831V65.162ZM219.938 64.174C219.348 64.174 218.88 64.0267 218.534 63.732C218.187 63.4373 218.009 63.0213 218.001 62.484H218.664C218.672 62.822 218.794 63.095 219.028 63.303C219.262 63.5023 219.565 63.602 219.938 63.602C220.31 63.602 220.614 63.5023 220.848 63.303C221.09 63.095 221.216 62.822 221.225 62.484H221.888C221.879 63.0213 221.697 63.4373 221.342 63.732C220.995 64.0267 220.527 64.174 219.938 64.174Z" fill="#222222"/>
<defs>
<linearGradient id="paint0_linear" x1="34.5436" y1="51.3972" x2="34.5436" y2="24.2204" gradientUnits="userSpaceOnUse">
<stop stop-color="#E56620"/>
<stop offset="0.7365" stop-color="#FC8215"/>
</linearGradient>
</defs>
</svg>
