<svg width="56" height="57" viewBox="0 0 56 57" fill="none" xmlns="http://www.w3.org/2000/svg">
<path d="M51.8534 4.68677H1.08228V55.5534H51.8534V4.68677Z" fill="url(#paint0_radial)"/>
<path d="M50.7711 5.76905V54.4711H2.19637V5.76905H50.7711ZM52.9675 3.60449H0V56.6675H52.9675V3.60449Z" fill="#30292C"/>
<path d="M19.9583 0.580566L55.8323 36.4546V0.580566H19.9583Z" fill="#30292C"/>
<path d="M52.4264 27.9237L51.6943 27.2553C51.6625 27.2234 48.9886 24.7724 45.8691 21.6529L46.4739 21.0481C48.6066 23.1808 50.5165 24.9952 51.5351 25.9501V5.16424H34.5053C33.9323 5.16424 33.1684 5.29155 32.9137 5.89634C32.6591 6.50114 33.0092 7.39245 33.4549 7.83809C34.2506 8.63388 39.471 13.8224 40.8398 15.1911L47.6835 8.41104L48.0018 8.72935C50.039 10.7666 50.039 14.1089 48.0018 16.1461C47.0151 17.1329 45.6781 17.674 44.2775 17.674C42.877 17.674 41.5719 17.1329 40.5533 16.1461C40.4896 16.0824 33.7414 9.36597 32.8501 8.44286C32.1816 7.7744 31.7041 6.53298 32.118 5.54621C32.3089 5.06874 32.8819 4.27295 34.5053 4.27295H52.4264V27.9237ZM41.4764 15.7641C43.1953 17.1965 45.7418 17.101 47.3652 15.4776C48.9568 13.8861 49.0523 11.3395 47.6517 9.62065L41.4764 15.7641Z" fill="#F4EDF0"/>
<path d="M32.3089 35.8179C35.2374 32.0618 39.1527 27.8919 39.1527 27.8919L36.0013 24.7406C36.0013 24.7406 33.1683 27.7646 31.7041 29.5471C30.1125 30.4066 28.2345 31.1387 26.3882 31.5525C25.4333 31.7754 24.4784 32.1255 23.5871 32.5075C24.2874 31.4252 25.0513 30.3111 25.8153 29.3562C28.7438 25.6001 32.659 21.4301 32.659 21.4301L29.5077 18.2788C29.5077 18.2788 27.2159 20.6662 26.1973 21.8758C24.351 22.7989 21.3907 23.2445 18.685 23.8493C15.3427 24.6133 11.6821 28.4012 11.6821 28.4012L13.974 30.6931C13.974 30.6931 17.8256 26.3322 19.5445 25.0907C20.8814 24.1358 24.0327 23.2127 25.4015 22.8625C24.351 24.1358 23.2369 25.5046 22.5366 26.4595C20.8496 28.7195 17.38 33.9399 17.38 33.9399L18.7487 35.3086L20.4994 37.0594L21.0406 37.6005C21.0406 37.6005 23.5552 34.1945 26.4201 32.8894C27.4069 32.4438 29.2212 31.4889 30.8128 30.6612C30.1444 31.4889 29.5077 32.3165 29.0303 32.9213C27.3432 35.1813 23.8736 40.4017 23.8736 40.4017L27.0249 43.553C26.993 43.553 30.1125 38.6828 32.3089 35.8179Z" fill="url(#paint1_linear)"/>
<path d="M44.4684 31.2342L45.6143 30.0883L45.1368 29.6108L27.534 47.2136L18.2711 45.2082L11.682 38.6191C12.2549 38.3645 12.8597 38.2053 13.5282 38.2053C14.7696 38.2053 15.9156 38.7146 16.775 39.6059L17.2843 39.1284C16.3294 38.1098 14.9606 37.505 13.5282 37.505C12.6687 37.505 11.873 37.7278 11.1727 38.078L9.9949 36.9002L7.98953 27.6373L17.0615 18.5653L11.0453 12.5173L10.5679 12.9948L16.1065 18.5653L7.2574 27.4145L9.35827 37.2503L10.536 38.4281C9.54927 39.1284 8.81715 40.1789 8.49883 41.4203C7.63938 40.9428 6.77993 40.5927 5.92048 40.3698L5.72949 41.0383C6.58894 41.2611 7.48022 41.6749 8.3715 42.1524C8.3715 42.3116 8.33967 42.4707 8.33967 42.6299C8.33967 45.4629 10.6315 47.7547 13.4645 47.7547C13.6237 47.7547 13.7828 47.7547 13.942 47.7229C14.4513 48.6142 14.8333 49.5373 15.0879 50.4286L15.7564 50.2376C15.2153 48.1367 13.8783 45.9403 12.0003 44.0623C11.109 43.171 10.1222 42.3752 9.10363 41.7704C9.32645 40.5927 10.0267 39.5422 10.9817 38.9056L17.7618 45.6857L17.8254 45.7494L27.6613 47.8502L43.8954 31.6162L45.0095 32.7621L28.0115 49.7919L17.7618 47.5956L17.6026 48.2641L28.2343 50.5559L45.9644 32.7939L44.4684 31.2342ZM11.5546 44.6353C12.3504 45.431 13.0189 46.2586 13.5919 47.1181C13.56 47.1181 13.56 47.1181 13.5282 47.1181C11.0772 47.1181 9.07179 45.1127 9.07179 42.6617C9.07179 42.6299 9.07179 42.6299 9.07179 42.598C9.93124 43.171 10.7907 43.8395 11.5546 44.6353Z" fill="url(#paint2_linear)"/>
<defs>
<radialGradient id="paint0_radial" cx="0" cy="0" r="1" gradientUnits="userSpaceOnUse" gradientTransform="translate(26.4729 30.1251) scale(25.4121)">
<stop stop-color="#E2DDE0"/>
<stop offset="0.5222" stop-color="#EFE9EC"/>
<stop offset="1" stop-color="#F4EDF0"/>
</radialGradient>
<linearGradient id="paint1_linear" x1="11.6351" y1="30.8834" x2="39.1549" y2="30.8834" gradientUnits="userSpaceOnUse">
<stop stop-color="#7849C1"/>
<stop offset="0.2798" stop-color="#7343BE"/>
<stop offset="0.6606" stop-color="#6731B4"/>
<stop offset="1" stop-color="#571CA8"/>
</linearGradient>
<linearGradient id="paint2_linear" x1="5.77453" y1="31.599" x2="46.0465" y2="31.599" gradientUnits="userSpaceOnUse">
<stop stop-color="#571CA8"/>
<stop offset="0.0196562" stop-color="#5E23AE"/>
<stop offset="0.0896959" stop-color="#7035BF"/>
<stop offset="0.1726" stop-color="#7D42CA"/>
<stop offset="0.28" stop-color="#854AD1"/>
<stop offset="0.5" stop-color="#874CD3"/>
<stop offset="0.6836" stop-color="#8449D1"/>
<stop offset="0.804" stop-color="#7C41C9"/>
<stop offset="0.9059" stop-color="#6D32BB"/>
<stop offset="0.9976" stop-color="#581DA9"/>
<stop offset="1" stop-color="#571CA8"/>
</linearGradient>
</defs>
</svg>
