<svg width="254" height="86" viewBox="0 0 254 86" fill="none" xmlns="http://www.w3.org/2000/svg">
<path d="M82.7149 16.2643L93.2974 37.9373H92.3097L88.3024 29.8663H76.9862L73.0354 37.9373H72.1606L82.7149 16.2643ZM82.6302 18.2115L77.3531 29.048H87.9638L82.6302 18.2115ZM96.1145 43.5813V25.2383H97.0175V28.3425C97.5255 27.3077 98.3157 26.4799 99.388 25.8591C100.479 25.2383 101.608 24.9278 102.774 24.9278C104.637 24.9278 106.217 25.5863 107.515 26.9032C108.832 28.2014 109.491 29.7629 109.491 31.5878C109.491 33.4126 108.832 34.9836 107.515 36.3005C106.217 37.5986 104.637 38.2477 102.774 38.2477C101.646 38.2477 100.545 37.9467 99.4727 37.3446C98.4003 36.7238 97.5819 35.896 97.0175 34.8613V43.5813H96.1145ZM96.9611 31.616C96.9611 33.1963 97.5349 34.5697 98.6825 35.7361C99.849 36.8837 101.222 37.4575 102.803 37.4575C104.402 37.4575 105.766 36.8837 106.895 35.7361C108.023 34.5697 108.588 33.1963 108.588 31.616C108.588 30.0168 108.014 28.6341 106.866 27.4676C105.738 26.3012 104.383 25.718 102.803 25.718C101.222 25.718 99.849 26.3106 98.6825 27.4959C97.5349 28.6623 96.9611 30.0357 96.9611 31.616ZM117.276 30.2332L122.384 37.9373H121.339L116.768 31.0234L112.224 37.9373H111.321L116.316 30.3179L112.958 25.2383H114.002L116.824 29.5277L119.646 25.2383H120.549L117.276 30.2332ZM136.025 25.2665V37.9373H135.15V26.6775L126.007 37.9373H125.216V25.2665H126.091V36.5263L135.206 25.2665H136.025ZM147.798 17.5906H141.195V37.9373H140.263V16.7723H147.798V17.5906ZM146.877 43.5813V25.2383H147.78V28.3425C148.288 27.3077 149.079 26.4799 150.151 25.8591C151.242 25.2383 152.371 24.9278 153.537 24.9278C155.4 24.9278 156.98 25.5863 158.278 26.9032C159.595 28.2014 160.254 29.7629 160.254 31.5878C160.254 33.4126 159.595 34.9836 158.278 36.3005C156.98 37.5986 155.4 38.2477 153.537 38.2477C152.409 38.2477 151.308 37.9467 150.236 37.3446C149.163 36.7238 148.345 35.896 147.78 34.8613V43.5813H146.877ZM147.724 31.616C147.724 33.1963 148.298 34.5697 149.445 35.7361C150.612 36.8837 151.985 37.4575 153.566 37.4575C155.165 37.4575 156.529 36.8837 157.657 35.7361C158.786 34.5697 159.351 33.1963 159.351 31.616C159.351 30.0168 158.777 28.6341 157.629 27.4676C156.5 26.3012 155.146 25.718 153.566 25.718C151.985 25.718 150.612 26.3106 149.445 27.4959C148.298 28.6623 147.724 30.0357 147.724 31.616ZM175.884 25.2383V37.9373H174.981V34.7766C174.454 35.849 173.664 36.6956 172.61 37.3164C171.557 37.9373 170.428 38.2477 169.224 38.2477C167.38 38.2477 165.8 37.5986 164.483 36.3005C163.166 34.9836 162.508 33.4126 162.508 31.5878C162.508 29.7629 163.166 28.2014 164.483 26.9032C165.8 25.5863 167.38 24.9278 169.224 24.9278C170.428 24.9278 171.576 25.2477 172.667 25.8873C173.777 26.527 174.548 27.3736 174.981 28.4271V25.2383H175.884ZM163.411 31.616C163.411 33.1963 163.984 34.5697 165.132 35.7361C166.298 36.8837 167.672 37.4575 169.252 37.4575C170.851 37.4575 172.215 36.8837 173.344 35.7361C174.473 34.5697 175.037 33.1963 175.037 31.616C175.037 30.0168 174.463 28.6341 173.316 27.4676C172.187 26.3012 170.832 25.718 169.252 25.718C167.672 25.718 166.298 26.3106 165.132 27.4959C163.984 28.6623 163.411 30.0357 163.411 31.616ZM186.152 20.1869H187.055V24.9278H187.196C189.04 24.9278 190.602 25.5769 191.881 26.875C193.179 28.1543 193.828 29.697 193.828 31.5031C193.828 33.2904 193.188 34.8425 191.909 36.1594C190.649 37.4575 189.096 38.1066 187.253 38.1066H187.055V43.5248H186.152V38.1066H185.926C184.064 38.1066 182.465 37.4481 181.129 36.1312C179.793 34.8142 179.125 33.2715 179.125 31.5031C179.125 29.7158 179.793 28.1731 181.129 26.875C182.484 25.5769 184.083 24.9278 185.926 24.9278H186.152V20.1869ZM186.152 25.718H185.926C184.346 25.718 182.954 26.3012 181.75 27.4676C180.565 28.6152 179.972 29.9698 179.972 31.5313C179.972 33.0928 180.565 34.4474 181.75 35.595C182.954 36.7426 184.346 37.3164 185.926 37.3164H186.152V25.718ZM187.055 25.718V37.3164H187.225C188.805 37.3164 190.15 36.752 191.26 35.6232C192.389 34.4756 192.953 33.1116 192.953 31.5313C192.953 29.951 192.389 28.587 191.26 27.4394C190.131 26.2918 188.777 25.718 187.196 25.718H187.055ZM196.892 38.1348C196.253 38.1348 195.933 37.8432 195.933 37.26C195.933 36.6768 196.253 36.3852 196.892 36.3852C197.551 36.3852 197.88 36.6768 197.88 37.26C197.88 37.8432 197.551 38.1348 196.892 38.1348Z" fill="#231F21"/>
<path d="M213.099 38.2401H212.788C210.85 38.2401 209.044 37.7321 207.37 36.7162C205.696 35.7003 204.369 34.3552 203.391 32.6808C202.432 30.9876 201.952 29.1909 201.952 27.2907C201.952 24.2994 203.034 21.7314 205.197 19.5867C207.361 17.4232 209.947 16.3414 212.958 16.3414C214.971 16.3414 216.88 16.8682 218.686 17.9217V18.9658C216.918 17.7618 215.008 17.1598 212.958 17.1598C210.192 17.1598 207.822 18.1569 205.846 20.1511C203.871 22.1265 202.883 24.5064 202.883 27.2907C202.883 30.0563 203.871 32.4362 205.846 34.4304C207.822 36.4246 210.192 37.4217 212.958 37.4217C215.008 37.4217 216.918 36.8197 218.686 35.6156V36.6598C216.974 37.7133 215.112 38.2401 213.099 38.2401ZM236.768 16.7647L226.721 37.9297H225.847L228.274 32.8219L220.372 16.7647H221.388L228.781 31.8342L235.893 16.7647H236.768ZM248.447 20.6308C248.447 22.2111 247.694 23.434 246.189 24.2994C247.713 24.6381 248.964 25.4941 249.943 26.8674C250.94 28.222 251.438 29.6989 251.438 31.298C251.438 33.2169 250.733 34.8631 249.322 36.2365C247.911 37.6099 246.208 38.2965 244.214 38.2965C243.01 38.2965 241.89 38.0332 240.856 37.5064C239.84 36.9608 239.04 36.2083 238.457 35.2488V33.6685C238.965 34.7973 239.727 35.7191 240.743 36.434C241.778 37.1301 242.944 37.4782 244.242 37.4782C245.954 37.4782 247.422 36.8667 248.644 35.6439C249.886 34.421 250.507 32.9536 250.507 31.2415C250.507 29.5107 249.895 28.0151 248.673 26.7546C247.469 25.4941 245.992 24.8638 244.242 24.8638H243.17V24.0737H244.073C245.032 24.0737 245.841 23.735 246.5 23.0577C247.177 22.3805 247.516 21.5715 247.516 20.6308C247.516 19.6902 247.177 18.8906 246.5 18.2321C245.841 17.5548 245.079 17.2162 244.214 17.2162C243.348 17.2162 242.596 17.4326 241.956 17.8653C241.317 18.298 240.884 18.8624 240.658 19.5585V18.091C241.505 16.9622 242.587 16.3978 243.903 16.3978C245.22 16.3978 246.302 16.8117 247.149 17.6395C248.014 18.4673 248.447 19.4644 248.447 20.6308Z" fill="#E21423"/>
<path d="M207.37 36.7162L206.981 37.3574L207.37 36.7162ZM203.391 32.6808L202.738 33.0506L202.743 33.0591L203.391 32.6808ZM205.197 19.5867L205.725 20.1193L205.727 20.117L205.197 19.5867ZM218.686 17.9217H219.436V17.4909L219.064 17.2739L218.686 17.9217ZM218.686 18.9658L218.264 19.5858L219.436 20.3838V18.9658H218.686ZM205.846 20.1511L206.376 20.6814L206.379 20.6789L205.846 20.1511ZM205.846 34.4304L206.379 33.9026L205.846 34.4304ZM218.686 35.6156H219.436V34.1977L218.264 34.9957L218.686 35.6156ZM218.686 36.6598L219.079 37.2985L219.436 37.0789V36.6598H218.686ZM213.099 37.4901H212.788V38.9901H213.099V37.4901ZM212.788 37.4901C210.989 37.4901 209.317 37.0206 207.759 36.075L206.981 37.3574C208.771 38.4437 210.712 38.9901 212.788 38.9901V37.4901ZM207.759 36.075C206.19 35.1232 204.953 33.8679 204.039 32.3024L202.743 33.0591C203.785 34.8424 205.201 36.2774 206.981 37.3574L207.759 36.075ZM204.044 32.311C203.146 30.7277 202.702 29.058 202.702 27.2907H201.202C201.202 29.3237 201.717 31.2474 202.738 33.0505L204.044 32.311ZM202.702 27.2907C202.702 24.5036 203.701 22.1261 205.725 20.1193L204.669 19.054C202.366 21.3367 201.202 24.0953 201.202 27.2907H202.702ZM205.727 20.117C207.753 18.0915 210.15 17.0914 212.958 17.0914V15.5914C209.745 15.5914 206.968 16.7548 204.667 19.0564L205.727 20.117ZM212.958 17.0914C214.833 17.0914 216.612 17.5802 218.308 18.5695L219.064 17.2739C217.148 16.1561 215.109 15.5914 212.958 15.5914V17.0914ZM217.936 17.9217V18.9658H219.436V17.9217H217.936ZM219.108 18.3459C217.221 17.061 215.166 16.4098 212.958 16.4098V17.9098C214.851 17.9098 216.614 18.4626 218.264 19.5858L219.108 18.3459ZM212.958 16.4098C209.989 16.4098 207.427 17.4893 205.313 19.6233L206.379 20.6789C208.216 18.8245 210.396 17.9098 212.958 17.9098V16.4098ZM205.316 19.6208C203.2 21.7363 202.133 24.3067 202.133 27.2907H203.633C203.633 24.706 204.541 22.5167 206.376 20.6814L205.316 19.6208ZM202.133 27.2907C202.133 30.2573 203.201 32.8259 205.313 34.9582L206.379 33.9026C204.54 32.0465 203.633 29.8553 203.633 27.2907H202.133ZM205.313 34.9582C207.427 37.0922 209.989 38.1717 212.958 38.1717V36.6717C210.396 36.6717 208.216 35.757 206.379 33.9026L205.313 34.9582ZM212.958 38.1717C215.166 38.1717 217.221 37.5205 219.108 36.2356L218.264 34.9957C216.614 36.1189 214.851 36.6717 212.958 36.6717V38.1717ZM217.936 35.6156V36.6598H219.436V35.6156H217.936ZM218.293 36.021C216.7 37.0017 214.973 37.4901 213.099 37.4901V38.9901C215.25 38.9901 217.249 38.4249 219.079 37.2985L218.293 36.021ZM236.768 16.7647L237.445 17.0863L237.954 16.0147H236.768V16.7647ZM226.721 37.9297V38.6797H227.196L227.399 38.2513L226.721 37.9297ZM225.847 37.9297L225.169 37.6078L224.66 38.6797H225.847V37.9297ZM228.274 32.8219L228.951 33.1437L229.107 32.8161L228.946 32.4907L228.274 32.8219ZM220.372 16.7647V16.0147H219.167L219.699 17.0958L220.372 16.7647ZM221.388 16.7647L222.061 16.4343L221.855 16.0147H221.388V16.7647ZM228.781 31.8342L228.108 32.1645L228.795 33.5637L229.46 32.1542L228.781 31.8342ZM235.893 16.7647V16.0147H235.418L235.215 16.4446L235.893 16.7647ZM236.09 16.4431L226.044 37.6081L227.399 38.2513L237.445 17.0863L236.09 16.4431ZM226.721 37.1797H225.847V38.6797H226.721V37.1797ZM226.524 38.2516L228.951 33.1437L227.596 32.5L225.169 37.6078L226.524 38.2516ZM228.946 32.4907L221.045 16.4335L219.699 17.0958L227.601 33.153L228.946 32.4907ZM220.372 17.5147H221.388V16.0147H220.372V17.5147ZM220.715 17.095L228.108 32.1645L229.455 31.5038L222.061 16.4343L220.715 17.095ZM229.46 32.1542L236.571 17.0848L235.215 16.4446L228.103 31.5141L229.46 32.1542ZM235.893 17.5147H236.768V16.0147H235.893V17.5147ZM246.189 24.2994L245.815 23.6492L244.14 24.6124L246.027 25.0316L246.189 24.2994ZM249.943 26.8674L249.332 27.3026L249.339 27.3121L249.943 26.8674ZM249.322 36.2365L248.799 35.699L249.322 36.2365ZM240.856 37.5064L240.501 38.1671L240.508 38.171L240.515 38.1748L240.856 37.5064ZM238.457 35.2488H237.707V35.4588L237.816 35.6383L238.457 35.2488ZM238.457 33.6685L239.141 33.3607L237.707 30.1742V33.6685H238.457ZM240.743 36.434L240.311 37.0474L240.318 37.0519L240.324 37.0563L240.743 36.434ZM248.644 35.6439L248.118 35.1095L248.114 35.1135L248.644 35.6439ZM248.673 26.7546L248.13 27.2726L248.134 27.2768L248.673 26.7546ZM243.17 24.8638H242.42V25.6138H243.17V24.8638ZM243.17 24.0737V23.3237H242.42V24.0737H243.17ZM246.5 23.0577L245.969 22.5274L245.962 22.5349L246.5 23.0577ZM246.5 18.2321L245.962 18.7549L245.969 18.7625L245.977 18.7699L246.5 18.2321ZM241.956 17.8653L242.376 18.4865L241.956 17.8653ZM240.658 19.5585H239.908V24.3021L241.372 19.7898L240.658 19.5585ZM240.658 18.091L240.058 17.641L239.908 17.841V18.091H240.658ZM247.149 17.6395L246.624 18.1758L246.63 18.1815L247.149 17.6395ZM247.697 20.6308C247.697 21.9121 247.116 22.9016 245.815 23.6492L246.563 24.9496C248.273 23.9664 249.197 22.5102 249.197 20.6308H247.697ZM246.027 25.0316C247.354 25.3266 248.452 26.067 249.332 27.3026L250.553 26.4323C249.477 24.9211 248.072 23.9495 246.352 23.5673L246.027 25.0316ZM249.339 27.3121C250.246 28.5449 250.688 29.8675 250.688 31.298H252.188C252.188 29.5303 251.633 27.8991 250.547 26.4228L249.339 27.3121ZM250.688 31.298C250.688 33.0087 250.069 34.4627 248.799 35.699L249.845 36.7739C251.397 35.2635 252.188 33.4252 252.188 31.298H250.688ZM248.799 35.699C247.53 36.9342 246.015 37.5465 244.214 37.5465V39.0465C246.401 39.0465 248.292 38.2855 249.845 36.7739L248.799 35.699ZM244.214 37.5465C243.124 37.5465 242.121 37.3091 241.196 36.838L240.515 38.1748C241.66 38.7572 242.896 39.0465 244.214 39.0465V37.5465ZM241.211 36.8456C240.309 36.3615 239.61 35.7012 239.098 34.8592L237.816 35.6383C238.471 36.7153 239.37 37.5601 240.501 38.1671L241.211 36.8456ZM239.207 35.2488V33.6685H237.707V35.2488H239.207ZM237.773 33.9762C238.336 35.2281 239.186 36.2554 240.311 37.0474L241.174 35.8207C240.268 35.1829 239.593 34.3664 239.141 33.3607L237.773 33.9762ZM240.324 37.0563C241.488 37.8392 242.801 38.2282 244.242 38.2282V36.7282C243.087 36.7282 242.067 36.4211 241.161 35.8117L240.324 37.0563ZM244.242 38.2282C246.155 38.2282 247.813 37.5361 249.175 36.1742L248.114 35.1135C247.03 36.1974 245.753 36.7282 244.242 36.7282V38.2282ZM249.171 36.1782C250.553 34.8172 251.257 33.1585 251.257 31.2415H249.757C249.757 32.7486 249.22 34.0248 248.118 35.1095L249.171 36.1782ZM251.257 31.2415C251.257 29.3126 250.567 27.6305 249.211 26.2323L248.134 27.2768C249.224 28.3996 249.757 29.7089 249.757 31.2415H251.257ZM249.215 26.2365C247.869 24.8273 246.196 24.1138 244.242 24.1138V25.6138C245.788 25.6138 247.068 26.1609 248.13 27.2726L249.215 26.2365ZM244.242 24.1138H243.17V25.6138H244.242V24.1138ZM243.92 24.8638V24.0737H242.42V24.8638H243.92ZM243.17 24.8237H244.073V23.3237H243.17V24.8237ZM244.073 24.8237C245.231 24.8237 246.235 24.4056 247.037 23.5806L245.962 22.5349C245.447 23.0644 244.833 23.3237 244.073 23.3237V24.8237ZM247.03 23.5881C247.845 22.773 248.266 21.7744 248.266 20.6308H246.766C246.766 21.3685 246.509 21.9879 245.969 22.5274L247.03 23.5881ZM248.266 20.6308C248.266 19.4866 247.844 18.4934 247.022 17.6944L245.977 18.7699C246.51 19.2878 246.766 19.8937 246.766 20.6308H248.266ZM247.037 17.7093C246.252 16.9015 245.301 16.4662 244.214 16.4662V17.9662C244.857 17.9662 245.43 18.2082 245.962 18.7549L247.037 17.7093ZM244.214 16.4662C243.217 16.4662 242.314 16.7175 241.536 17.2441L242.376 18.4865C242.877 18.1476 243.479 17.9662 244.214 17.9662V16.4662ZM241.536 17.2441C240.766 17.7649 240.225 18.4628 239.945 19.3271L241.372 19.7898C241.543 19.2619 241.867 18.8311 242.376 18.4865L241.536 17.2441ZM241.408 19.5585V18.091H239.908V19.5585H241.408ZM241.258 18.541C241.975 17.5854 242.842 17.1478 243.903 17.1478V15.6478C242.332 15.6478 241.035 16.3391 240.058 17.641L241.258 18.541ZM243.903 17.1478C245.048 17.1478 245.934 17.5009 246.624 18.1758L247.673 17.1033C246.67 16.1225 245.392 15.6478 243.903 15.6478V17.1478ZM246.63 18.1815C247.352 18.872 247.697 19.6752 247.697 20.6308H249.197C249.197 19.2536 248.676 18.0625 247.667 17.0975L246.63 18.1815Z" fill="#E21423"/>
<path d="M52.1537 4.71094H1.08838V55.8723H52.1537V4.71094Z" fill="url(#paint0_radial)"/>
<path d="M51.0333 5.83116V54.8155H2.17708V5.83116H51.0333ZM53.2424 3.62207H0V56.9925H53.2744V3.62207H53.2424Z" fill="#30292C"/>
<path d="M15.9759 45.4349C19.2415 48.3483 23.4676 49.9491 27.8538 49.9491C37.7146 49.9491 45.7186 41.9451 45.7186 32.0842H44.9823C44.9823 41.5289 37.2984 49.2127 27.8538 49.2127C23.5316 49.2127 19.4016 47.6119 16.232 44.6665L16.0079 44.4424L8.0039 51.2938H5.3786V48.7325L13.6387 41.593L13.4786 41.3368C11.6857 38.5835 10.7573 35.3819 10.7573 32.0522H10.0209C10.0209 35.3819 10.9494 38.6475 12.6782 41.4649L4.64224 48.4123V52.0301H8.29204L15.9759 45.4349ZM14.9193 20.3344C18.1529 16.7486 23.0194 14.9237 27.8538 14.9237V14.1874C22.9553 14.1874 18.0249 16.0123 14.6312 19.566L4.54619 9.19287L4.03394 9.70513L14.6952 20.6225L14.9193 20.3344Z" fill="url(#paint1_linear)"/>
<path d="M19.7214 0.580566L55.8354 36.6945V0.580566H19.7214Z" fill="#30292C"/>
<path d="M52.4097 28.0825L51.6733 27.4102C51.6413 27.3781 48.952 24.9129 45.8144 21.7753L46.4227 21.1671C48.5678 23.3121 50.4888 25.137 51.5133 26.0975V5.19112H34.3848C33.8085 5.19112 33.0401 5.31918 32.784 5.92748C32.5278 6.53578 32.88 7.43223 33.3282 7.88045C34.1286 8.68085 39.3792 13.8994 40.7559 15.2761L47.6393 8.45674L47.9595 8.7769C50.0085 10.8259 50.0085 14.1876 47.9595 16.2366C45.9105 18.2856 42.5488 18.2856 40.4998 16.2366C40.4358 16.1726 33.6484 9.41721 32.7519 8.48875C32.0796 7.81642 31.5994 6.56781 32.0156 5.57531C32.2077 5.09508 32.784 4.29468 34.4168 4.29468H52.4417V28.0825H52.4097ZM41.3962 15.8524C43.1251 17.2931 45.6864 17.1971 47.3192 15.5643C48.92 13.9635 49.016 11.4022 47.6073 9.67334L41.3962 15.8524Z" fill="#F4EDF0"/>
<path d="M19.4333 41.337C16.6159 38.5196 14.6309 34.7737 13.8945 30.8678L16.1677 31.316C17.5764 35.254 18.9851 37.303 21.7064 39.8323C24.7479 42.6497 27.1171 41.7212 27.9175 40.9208C28.4938 40.3445 29.9665 39.256 29.0381 36.5986C28.1736 34.1014 26.3807 32.3085 25.9005 31.7963C25.8365 31.7322 25.8044 31.7002 25.7404 31.6362L27.8855 30.0994C29.4863 31.6362 32.912 34.4536 36.0495 31.316C38.8349 28.5306 37.3302 26.4496 35.7934 24.9128C33.8084 22.9279 31.9515 23.0239 30.4147 23.8884C29.3902 24.4646 28.5578 25.6492 28.1096 26.3536L25.1321 25.137C25.1961 25.0409 26.6048 22.8318 28.6859 21.5512C31.055 20.1105 34.6408 20.1105 37.6503 23.088C41.3001 26.7378 41.7804 30.8358 38.6748 33.9413C36.4977 36.1184 34.0645 36.2465 31.5673 35.4461C32.0475 36.5346 32.3677 37.7192 32.3677 38.9038C32.3997 40.7287 31.7274 42.2975 30.4147 43.6421C28.1736 45.8833 24.908 45.5311 21.6744 43.1939C20.842 42.6497 20.1056 42.0093 19.4333 41.337Z" fill="url(#paint2_linear)"/>
<path d="M37.2023 41.3688C42.3889 36.1822 42.3889 27.8261 37.2023 22.6395C32.0157 17.4529 23.2434 17.2288 17.9928 22.3193C14.9833 25.2328 13.7026 28.8186 14.3749 31.1237" stroke="#E21423" stroke-miterlimit="10"/>
<path d="M83.4879 55.5038V64.6038H82.5389V56.3358H76.7799V64.6038H75.8309V55.5038H83.4879ZM89.8604 57.7138C90.5017 57.7138 91.0824 57.8611 91.6024 58.1558C92.1224 58.4418 92.5297 58.8491 92.8244 59.3778C93.1191 59.9064 93.2664 60.5088 93.2664 61.1848C93.2664 61.8694 93.1191 62.4761 92.8244 63.0048C92.5297 63.5334 92.1224 63.9451 91.6024 64.2398C91.0911 64.5258 90.5104 64.6688 89.8604 64.6688C89.3057 64.6688 88.8031 64.5561 88.3524 64.3308C87.9104 64.0968 87.5464 63.7588 87.2604 63.3168V67.1258H86.3374V57.7658H87.2214V59.1178C87.4987 58.6671 87.8627 58.3204 88.3134 58.0778C88.7727 57.8351 89.2884 57.7138 89.8604 57.7138ZM89.7954 63.8498C90.2721 63.8498 90.7054 63.7414 91.0954 63.5248C91.4854 63.2994 91.7887 62.9831 92.0054 62.5758C92.2307 62.1684 92.3434 61.7048 92.3434 61.1848C92.3434 60.6648 92.2307 60.2054 92.0054 59.8068C91.7887 59.3994 91.4854 59.0831 91.0954 58.8578C90.7054 58.6324 90.2721 58.5198 89.7954 58.5198C89.3101 58.5198 88.8724 58.6324 88.4824 58.8578C88.1011 59.0831 87.7977 59.3994 87.5724 59.8068C87.3557 60.2054 87.2474 60.6648 87.2474 61.1848C87.2474 61.7048 87.3557 62.1684 87.5724 62.5758C87.7977 62.9831 88.1011 63.2994 88.4824 63.5248C88.8724 63.7414 89.3101 63.8498 89.7954 63.8498ZM98.0705 64.6688C97.4119 64.6688 96.8182 64.5214 96.2895 64.2268C95.7609 63.9234 95.3449 63.5074 95.0415 62.9788C94.7382 62.4501 94.5865 61.8521 94.5865 61.1848C94.5865 60.5174 94.7382 59.9194 95.0415 59.3908C95.3449 58.8621 95.7609 58.4504 96.2895 58.1558C96.8182 57.8611 97.4119 57.7138 98.0705 57.7138C98.7292 57.7138 99.3229 57.8611 99.8515 58.1558C100.38 58.4504 100.792 58.8621 101.087 59.3908C101.39 59.9194 101.542 60.5174 101.542 61.1848C101.542 61.8521 101.39 62.4501 101.087 62.9788C100.792 63.5074 100.38 63.9234 99.8515 64.2268C99.3229 64.5214 98.7292 64.6688 98.0705 64.6688ZM98.0705 63.8498C98.5559 63.8498 98.9892 63.7414 99.3705 63.5248C99.7605 63.2994 100.064 62.9831 100.281 62.5758C100.497 62.1684 100.606 61.7048 100.606 61.1848C100.606 60.6648 100.497 60.2011 100.281 59.7938C100.064 59.3864 99.7605 59.0744 99.3705 58.8578C98.9892 58.6324 98.5559 58.5198 98.0705 58.5198C97.5852 58.5198 97.1475 58.6324 96.7575 58.8578C96.3762 59.0744 96.0729 59.3864 95.8475 59.7938C95.6309 60.2011 95.5225 60.6648 95.5225 61.1848C95.5225 61.7048 95.6309 62.1684 95.8475 62.5758C96.0729 62.9831 96.3762 63.2994 96.7575 63.5248C97.1475 63.7414 97.5852 63.8498 98.0705 63.8498ZM108.35 58.5848H104.437V64.6038H103.514V57.7658H108.35V58.5848ZM113.207 57.7138C113.848 57.7138 114.429 57.8611 114.949 58.1558C115.469 58.4418 115.876 58.8491 116.171 59.3778C116.466 59.9064 116.613 60.5088 116.613 61.1848C116.613 61.8694 116.466 62.4761 116.171 63.0048C115.876 63.5334 115.469 63.9451 114.949 64.2398C114.438 64.5258 113.857 64.6688 113.207 64.6688C112.652 64.6688 112.15 64.5561 111.699 64.3308C111.257 64.0968 110.893 63.7588 110.607 63.3168V67.1258H109.684V57.7658H110.568V59.1178C110.845 58.6671 111.209 58.3204 111.66 58.0778C112.119 57.8351 112.635 57.7138 113.207 57.7138ZM113.142 63.8498C113.619 63.8498 114.052 63.7414 114.442 63.5248C114.832 63.2994 115.135 62.9831 115.352 62.5758C115.577 62.1684 115.69 61.7048 115.69 61.1848C115.69 60.6648 115.577 60.2054 115.352 59.8068C115.135 59.3994 114.832 59.0831 114.442 58.8578C114.052 58.6324 113.619 58.5198 113.142 58.5198C112.657 58.5198 112.219 58.6324 111.829 58.8578C111.448 59.0831 111.144 59.3994 110.919 59.8068C110.702 60.2054 110.594 60.6648 110.594 61.1848C110.594 61.7048 110.702 62.1684 110.919 62.5758C111.144 62.9831 111.448 63.2994 111.829 63.5248C112.219 63.7414 112.657 63.8498 113.142 63.8498ZM120.911 57.7138C121.804 57.7138 122.488 57.9391 122.965 58.3898C123.442 58.8318 123.68 59.4904 123.68 60.3658V64.6038H122.796V63.5378C122.588 63.8931 122.28 64.1704 121.873 64.3698C121.474 64.5691 120.998 64.6688 120.443 64.6688C119.68 64.6688 119.074 64.4868 118.623 64.1228C118.172 63.7588 117.947 63.2778 117.947 62.6798C117.947 62.0991 118.155 61.6311 118.571 61.2758C118.996 60.9204 119.667 60.7428 120.586 60.7428H122.757V60.3268C122.757 59.7374 122.592 59.2911 122.263 58.9878C121.934 58.6758 121.453 58.5198 120.82 58.5198C120.387 58.5198 119.971 58.5934 119.572 58.7408C119.173 58.8794 118.831 59.0744 118.545 59.3258L118.129 58.6368C118.476 58.3421 118.892 58.1168 119.377 57.9608C119.862 57.7961 120.374 57.7138 120.911 57.7138ZM120.586 63.9408C121.106 63.9408 121.552 63.8238 121.925 63.5898C122.298 63.3471 122.575 63.0004 122.757 62.5498V61.4318H120.612C119.442 61.4318 118.857 61.8391 118.857 62.6538C118.857 63.0524 119.009 63.3688 119.312 63.6028C119.615 63.8281 120.04 63.9408 120.586 63.9408ZM133.781 57.7658V64.6038H132.936V59.1958L130.167 63.7718H129.751L126.982 59.1828V64.6038H126.137V57.7658H127.073L129.972 62.6928L132.923 57.7658H133.781ZM144.052 57.7658V64.6038H143.207V59.1958L140.438 63.7718H140.022L137.253 59.1828V64.6038H136.408V57.7658H137.344L140.243 62.6928L143.194 57.7658H144.052ZM146.678 57.7658H147.601V60.7948H151.904V57.7658H152.827V64.6038H151.904V61.5878H147.601V64.6038H146.678V57.7658ZM158.324 60.1838C159.182 60.1924 159.836 60.3831 160.287 60.7558C160.737 61.1284 160.963 61.6658 160.963 62.3678C160.963 63.0958 160.72 63.6548 160.235 64.0448C159.749 64.4348 159.056 64.6254 158.155 64.6168L155.451 64.6038V57.7658H156.374V60.1578L158.324 60.1838ZM162.107 57.7658H163.03V64.6038H162.107V57.7658ZM158.103 63.9148C158.735 63.9234 159.212 63.7978 159.533 63.5378C159.862 63.2691 160.027 62.8791 160.027 62.3678C160.027 61.8651 159.866 61.4924 159.546 61.2498C159.225 61.0071 158.744 60.8814 158.103 60.8728L156.374 60.8468V63.8888L158.103 63.9148ZM165.658 57.7658H166.581V63.1998L171.144 57.7658H171.963V64.6038H171.04V59.1698L166.49 64.6038H165.658V57.7658ZM168.765 56.7778C168.175 56.7778 167.707 56.6304 167.361 56.3358C167.014 56.0411 166.836 55.6251 166.828 55.0878H167.491C167.499 55.4258 167.621 55.6988 167.855 55.9068C168.089 56.1061 168.392 56.2058 168.765 56.2058C169.137 56.2058 169.441 56.1061 169.675 55.9068C169.917 55.6988 170.043 55.4258 170.052 55.0878H170.715C170.706 55.6251 170.524 56.0411 170.169 56.3358C169.822 56.6304 169.354 56.7778 168.765 56.7778ZM178.01 57.7658H178.933V63.1998L183.496 57.7658H184.315V64.6038H183.392V59.1698L178.842 64.6038H178.01V57.7658ZM186.96 57.7658H187.883V60.7948H192.186V57.7658H193.109V64.6038H192.186V61.5878H187.883V64.6038H186.96V57.7658ZM200.543 58.5848H197.956V64.6038H197.033V58.5848H194.446V57.7658H200.543V58.5848ZM207.54 61.4708H201.82C201.872 62.1814 202.145 62.7578 202.639 63.1998C203.133 63.6331 203.757 63.8498 204.511 63.8498C204.936 63.8498 205.326 63.7761 205.681 63.6288C206.036 63.4728 206.344 63.2474 206.604 62.9528L207.124 63.5508C206.821 63.9148 206.439 64.1921 205.98 64.3828C205.529 64.5734 205.031 64.6688 204.485 64.6688C203.783 64.6688 203.159 64.5214 202.613 64.2268C202.076 63.9234 201.655 63.5074 201.352 62.9788C201.049 62.4501 200.897 61.8521 200.897 61.1848C200.897 60.5174 201.04 59.9194 201.326 59.3908C201.621 58.8621 202.019 58.4504 202.522 58.1558C203.033 57.8611 203.605 57.7138 204.238 57.7138C204.871 57.7138 205.438 57.8611 205.941 58.1558C206.444 58.4504 206.838 58.8621 207.124 59.3908C207.41 59.9108 207.553 60.5088 207.553 61.1848L207.54 61.4708ZM204.238 58.5068C203.579 58.5068 203.025 58.7191 202.574 59.1438C202.132 59.5598 201.881 60.1058 201.82 60.7818H206.669C206.608 60.1058 206.353 59.5598 205.902 59.1438C205.46 58.7191 204.905 58.5068 204.238 58.5068ZM213.119 57.7138C213.761 57.7138 214.341 57.8611 214.861 58.1558C215.381 58.4418 215.789 58.8491 216.083 59.3778C216.378 59.9064 216.525 60.5088 216.525 61.1848C216.525 61.8694 216.378 62.4761 216.083 63.0048C215.789 63.5334 215.381 63.9451 214.861 64.2398C214.35 64.5258 213.769 64.6688 213.119 64.6688C212.565 64.6688 212.062 64.5561 211.611 64.3308C211.169 64.0968 210.805 63.7588 210.519 63.3168V67.1258H209.596V57.7658H210.48V59.1178C210.758 58.6671 211.122 58.3204 211.572 58.0778C212.032 57.8351 212.547 57.7138 213.119 57.7138ZM213.054 63.8498C213.531 63.8498 213.964 63.7414 214.354 63.5248C214.744 63.2994 215.048 62.9831 215.264 62.5758C215.49 62.1684 215.602 61.7048 215.602 61.1848C215.602 60.6648 215.49 60.2054 215.264 59.8068C215.048 59.3994 214.744 59.0831 214.354 58.8578C213.964 58.6324 213.531 58.5198 213.054 58.5198C212.569 58.5198 212.131 58.6324 211.741 58.8578C211.36 59.0831 211.057 59.3994 210.831 59.8068C210.615 60.2054 210.506 60.6648 210.506 61.1848C210.506 61.7048 210.615 62.1684 210.831 62.5758C211.057 62.9831 211.36 63.2994 211.741 63.5248C212.131 63.7414 212.569 63.8498 213.054 63.8498ZM226.763 61.1718C226.763 62.2378 226.412 63.0741 225.71 63.6808C225.008 64.2874 224.016 64.6168 222.733 64.6688V67.1258H221.836V64.6818C220.562 64.6298 219.574 64.3004 218.872 63.6938C218.179 63.0784 217.832 62.2378 217.832 61.1718C217.832 60.1144 218.179 59.2868 218.872 58.6888C219.574 58.0908 220.562 57.7658 221.836 57.7138V54.9578H222.733V57.7138C224.016 57.7744 225.008 58.1038 225.71 58.7018C226.412 59.2998 226.763 60.1231 226.763 61.1718ZM218.742 61.1718C218.742 61.9864 219.002 62.6234 219.522 63.0828C220.051 63.5421 220.822 63.8021 221.836 63.8628V58.5328C220.831 58.5848 220.064 58.8404 219.535 59.2998C219.007 59.7504 218.742 60.3744 218.742 61.1718ZM222.733 63.8628C223.747 63.8108 224.519 63.5551 225.047 63.0958C225.585 62.6364 225.853 61.9951 225.853 61.1718C225.853 60.3658 225.585 59.7374 225.047 59.2868C224.519 58.8361 223.747 58.5848 222.733 58.5328V63.8628ZM234.695 61.4708H228.975C229.027 62.1814 229.3 62.7578 229.794 63.1998C230.288 63.6331 230.912 63.8498 231.666 63.8498C232.091 63.8498 232.481 63.7761 232.836 63.6288C233.192 63.4728 233.499 63.2474 233.759 62.9528L234.279 63.5508C233.976 63.9148 233.595 64.1921 233.135 64.3828C232.685 64.5734 232.186 64.6688 231.64 64.6688C230.938 64.6688 230.314 64.5214 229.768 64.2268C229.231 63.9234 228.811 63.5074 228.507 62.9788C228.204 62.4501 228.052 61.8521 228.052 61.1848C228.052 60.5174 228.195 59.9194 228.481 59.3908C228.776 58.8621 229.175 58.4504 229.677 58.1558C230.189 57.8611 230.761 57.7138 231.393 57.7138C232.026 57.7138 232.594 57.8611 233.096 58.1558C233.599 58.4504 233.993 58.8621 234.279 59.3908C234.565 59.9108 234.708 60.5088 234.708 61.1848L234.695 61.4708ZM231.393 58.5068C230.735 58.5068 230.18 58.7191 229.729 59.1438C229.287 59.5598 229.036 60.1058 228.975 60.7818H233.824C233.764 60.1058 233.508 59.5598 233.057 59.1438C232.615 58.7191 232.061 58.5068 231.393 58.5068ZM236.751 57.7658H237.674V63.1998L242.237 57.7658H243.056V64.6038H242.133V59.1698L237.583 64.6038H236.751V57.7658ZM239.858 56.7778C239.269 56.7778 238.801 56.6304 238.454 56.3358C238.108 56.0411 237.93 55.6251 237.921 55.0878H238.584C238.593 55.4258 238.714 55.6988 238.948 55.9068C239.182 56.1061 239.486 56.2058 239.858 56.2058C240.231 56.2058 240.534 56.1061 240.768 55.9068C241.011 55.6988 241.137 55.4258 241.145 55.0878H241.808C241.8 55.6251 241.618 56.0411 241.262 56.3358C240.916 56.6304 240.448 56.7778 239.858 56.7778ZM248.562 64.6688C247.886 64.6688 247.279 64.5214 246.742 64.2268C246.213 63.9321 245.797 63.5204 245.494 62.9918C245.19 62.4544 245.039 61.8521 245.039 61.1848C245.039 60.5174 245.19 59.9194 245.494 59.3908C245.797 58.8621 246.213 58.4504 246.742 58.1558C247.279 57.8611 247.886 57.7138 248.562 57.7138C249.151 57.7138 249.675 57.8308 250.135 58.0648C250.603 58.2901 250.971 58.6238 251.24 59.0658L250.551 59.5338C250.325 59.1958 250.039 58.9444 249.693 58.7798C249.346 58.6064 248.969 58.5198 248.562 58.5198C248.068 58.5198 247.621 58.6324 247.223 58.8578C246.833 59.0744 246.525 59.3864 246.3 59.7938C246.083 60.2011 245.975 60.6648 245.975 61.1848C245.975 61.7134 246.083 62.1814 246.3 62.5888C246.525 62.9874 246.833 63.2994 247.223 63.5248C247.621 63.7414 248.068 63.8498 248.562 63.8498C248.969 63.8498 249.346 63.7674 249.693 63.6028C250.039 63.4381 250.325 63.1868 250.551 62.8488L251.24 63.3168C250.971 63.7588 250.603 64.0968 250.135 64.3308C249.667 64.5561 249.142 64.6688 248.562 64.6688ZM82.2789 81.7978V84.2548H81.4079V82.6038H75.2849V84.2548H74.4139V81.7978H74.8039C75.2632 81.7718 75.5752 81.4338 75.7399 80.7838C75.9045 80.1338 76.0172 79.2238 76.0779 78.0538L76.1689 75.7658H81.2129V81.7978H82.2789ZM76.9229 78.1058C76.8795 79.0764 76.7972 79.8781 76.6759 80.5108C76.5545 81.1348 76.3379 81.5638 76.0259 81.7978H80.2899V76.5848H77.0009L76.9229 78.1058ZM86.8986 82.6688C86.24 82.6688 85.6463 82.5214 85.1176 82.2268C84.589 81.9234 84.173 81.5074 83.8696 80.9788C83.5663 80.4501 83.4146 79.8521 83.4146 79.1848C83.4146 78.5174 83.5663 77.9194 83.8696 77.3908C84.173 76.8621 84.589 76.4504 85.1176 76.1558C85.6463 75.8611 86.24 75.7138 86.8986 75.7138C87.5573 75.7138 88.151 75.8611 88.6796 76.1558C89.2083 76.4504 89.62 76.8621 89.9146 77.3908C90.218 77.9194 90.3696 78.5174 90.3696 79.1848C90.3696 79.8521 90.218 80.4501 89.9146 80.9788C89.62 81.5074 89.2083 81.9234 88.6796 82.2268C88.151 82.5214 87.5573 82.6688 86.8986 82.6688ZM86.8986 81.8498C87.384 81.8498 87.8173 81.7414 88.1986 81.5248C88.5886 81.2994 88.892 80.9831 89.1086 80.5758C89.3253 80.1684 89.4336 79.7048 89.4336 79.1848C89.4336 78.6648 89.3253 78.2011 89.1086 77.7938C88.892 77.3864 88.5886 77.0744 88.1986 76.8578C87.8173 76.6324 87.384 76.5198 86.8986 76.5198C86.4133 76.5198 85.9756 76.6324 85.5856 76.8578C85.2043 77.0744 84.901 77.3864 84.6756 77.7938C84.459 78.2011 84.3506 78.6648 84.3506 79.1848C84.3506 79.7048 84.459 80.1684 84.6756 80.5758C84.901 80.9831 85.2043 81.2994 85.5856 81.5248C85.9756 81.7414 86.4133 81.8498 86.8986 81.8498ZM95.2023 82.6688C94.5263 82.6688 93.9196 82.5214 93.3823 82.2268C92.8536 81.9321 92.4376 81.5204 92.1343 80.9918C91.831 80.4544 91.6793 79.8521 91.6793 79.1848C91.6793 78.5174 91.831 77.9194 92.1343 77.3908C92.4376 76.8621 92.8536 76.4504 93.3823 76.1558C93.9196 75.8611 94.5263 75.7138 95.2023 75.7138C95.7916 75.7138 96.316 75.8308 96.7753 76.0648C97.2433 76.2901 97.6116 76.6238 97.8803 77.0658L97.1913 77.5338C96.966 77.1958 96.68 76.9444 96.3333 76.7798C95.9866 76.6064 95.6096 76.5198 95.2023 76.5198C94.7083 76.5198 94.262 76.6324 93.8633 76.8578C93.4733 77.0744 93.1656 77.3864 92.9403 77.7938C92.7236 78.2011 92.6153 78.6648 92.6153 79.1848C92.6153 79.7134 92.7236 80.1814 92.9403 80.5888C93.1656 80.9874 93.4733 81.2994 93.8633 81.5248C94.262 81.7414 94.7083 81.8498 95.2023 81.8498C95.6096 81.8498 95.9866 81.7674 96.3333 81.6028C96.68 81.4381 96.966 81.1868 97.1913 80.8488L97.8803 81.3168C97.6116 81.7588 97.2433 82.0968 96.7753 82.3308C96.3073 82.5561 95.783 82.6688 95.2023 82.6688ZM104.351 76.5848H101.764V82.6038H100.841V76.5848H98.2535V75.7658H104.351V76.5848ZM111.521 75.7658L108.102 83.4228C107.825 84.0641 107.504 84.5191 107.14 84.7878C106.776 85.0564 106.339 85.1908 105.827 85.1908C105.498 85.1908 105.19 85.1388 104.904 85.0348C104.618 84.9308 104.371 84.7748 104.163 84.5668L104.592 83.8778C104.939 84.2244 105.355 84.3978 105.84 84.3978C106.152 84.3978 106.417 84.3111 106.633 84.1378C106.859 83.9644 107.067 83.6698 107.257 83.2538L107.556 82.5908L104.501 75.7658H105.463L108.037 81.5768L110.611 75.7658H111.521ZM119.095 75.7658V82.6038H118.172V76.5848H113.882V82.6038H112.959V75.7658H119.095ZM124.072 75.7138C124.965 75.7138 125.65 75.9391 126.126 76.3898C126.603 76.8318 126.841 77.4904 126.841 78.3658V82.6038H125.957V81.5378C125.749 81.8931 125.442 82.1704 125.034 82.3698C124.636 82.5691 124.159 82.6688 123.604 82.6688C122.842 82.6688 122.235 82.4868 121.784 82.1228C121.334 81.7588 121.108 81.2778 121.108 80.6798C121.108 80.0991 121.316 79.6311 121.732 79.2758C122.157 78.9204 122.829 78.7428 123.747 78.7428H125.918V78.3268C125.918 77.7374 125.754 77.2911 125.424 76.9878C125.095 76.6758 124.614 76.5198 123.981 76.5198C123.548 76.5198 123.132 76.5934 122.733 76.7408C122.335 76.8794 121.992 77.0744 121.706 77.3258L121.29 76.6368C121.637 76.3421 122.053 76.1168 122.538 75.9608C123.024 75.7961 123.535 75.7138 124.072 75.7138ZM123.747 81.9408C124.267 81.9408 124.714 81.8238 125.086 81.5898C125.459 81.3471 125.736 81.0004 125.918 80.5498V79.4318H123.773C122.603 79.4318 122.018 79.8391 122.018 80.6538C122.018 81.0524 122.17 81.3688 122.473 81.6028C122.777 81.8281 123.201 81.9408 123.747 81.9408ZM135.184 79.5618H133.624V82.6038H132.701V75.7658H133.624V78.7688H135.197L137.602 75.7658H138.603L135.912 79.0808L138.798 82.6038H137.706L135.184 79.5618ZM150.326 81.7978V84.2548H149.455V82.6038H143.332V84.2548H142.461V81.7978H142.851C143.31 81.7718 143.622 81.4338 143.787 80.7838C143.951 80.1338 144.064 79.2238 144.125 78.0538L144.216 75.7658H149.26V81.7978H150.326ZM144.97 78.1058C144.926 79.0764 144.844 79.8781 144.723 80.5108C144.601 81.1348 144.385 81.5638 144.073 81.7978H148.337V76.5848H145.048L144.97 78.1058ZM154.478 75.7138C155.37 75.7138 156.055 75.9391 156.532 76.3898C157.008 76.8318 157.247 77.4904 157.247 78.3658V82.6038H156.363V81.5378C156.155 81.8931 155.847 82.1704 155.44 82.3698C155.041 82.5691 154.564 82.6688 154.01 82.6688C153.247 82.6688 152.64 82.4868 152.19 82.1228C151.739 81.7588 151.514 81.2778 151.514 80.6798C151.514 80.0991 151.722 79.6311 152.138 79.2758C152.562 78.9204 153.234 78.7428 154.153 78.7428H156.324V78.3268C156.324 77.7374 156.159 77.2911 155.83 76.9878C155.5 76.6758 155.019 76.5198 154.387 76.5198C153.953 76.5198 153.537 76.5934 153.139 76.7408C152.74 76.8794 152.398 77.0744 152.112 77.3258L151.696 76.6368C152.042 76.3421 152.458 76.1168 152.944 75.9608C153.429 75.7961 153.94 75.7138 154.478 75.7138ZM154.153 81.9408C154.673 81.9408 155.119 81.8238 155.492 81.5898C155.864 81.3471 156.142 81.0004 156.324 80.5498V79.4318H154.179C153.009 79.4318 152.424 79.8391 152.424 80.6538C152.424 81.0524 152.575 81.3688 152.879 81.6028C153.182 81.8281 153.607 81.9408 154.153 81.9408ZM159.704 75.7658H160.627V78.7948H164.93V75.7658H165.853V82.6038H164.93V79.5878H160.627V82.6038H159.704V75.7658ZM168.476 75.7658H169.399V78.7948H173.702V75.7658H174.625V82.6038H173.702V79.5878H169.399V82.6038H168.476V75.7658ZM180.122 78.1838C180.98 78.1924 181.634 78.3831 182.085 78.7558C182.535 79.1284 182.761 79.6658 182.761 80.3678C182.761 81.0958 182.518 81.6548 182.033 82.0448C181.547 82.4348 180.854 82.6254 179.953 82.6168L177.249 82.6038V75.7658H178.172V78.1578L180.122 78.1838ZM183.905 75.7658H184.828V82.6038H183.905V75.7658ZM179.901 81.9148C180.533 81.9234 181.01 81.7978 181.331 81.5378C181.66 81.2691 181.825 80.8791 181.825 80.3678C181.825 79.8651 181.664 79.4924 181.344 79.2498C181.023 79.0071 180.542 78.8814 179.901 78.8728L178.172 78.8468V81.8888L179.901 81.9148ZM195.1 75.7658V82.6038H194.255V77.1958L191.486 81.7718H191.07L188.301 77.1828V82.6038H187.456V75.7658H188.392L191.291 80.6928L194.242 75.7658H195.1Z" fill="#222222"/>
<defs>
<radialGradient id="paint0_radial" cx="0" cy="0" r="1" gradientUnits="userSpaceOnUse" gradientTransform="translate(26.6181 30.3112) scale(25.5592)">
<stop stop-color="#E2DDE0"/>
<stop offset="0.5222" stop-color="#EFE9EC"/>
<stop offset="1" stop-color="#F4EDF0"/>
</radialGradient>
<linearGradient id="paint1_linear" x1="24.8728" y1="52.0308" x2="24.8728" y2="9.2036" gradientUnits="userSpaceOnUse">
<stop stop-color="#9C1423"/>
<stop offset="0.0628147" stop-color="#B21423"/>
<stop offset="0.1442" stop-color="#C71423"/>
<stop offset="0.2348" stop-color="#D61423"/>
<stop offset="0.3408" stop-color="#DF1423"/>
<stop offset="0.5" stop-color="#E21423"/>
<stop offset="0.6529" stop-color="#DF1423"/>
<stop offset="0.7605" stop-color="#D61423"/>
<stop offset="0.8542" stop-color="#C61423"/>
<stop offset="0.9393" stop-color="#B11423"/>
<stop offset="1" stop-color="#9C1423"/>
</linearGradient>
<linearGradient id="paint2_linear" x1="27.2933" y1="45.1617" x2="27.2933" y2="20.6334" gradientUnits="userSpaceOnUse">
<stop stop-color="#B21423"/>
<stop offset="0.7365" stop-color="#E21423"/>
</linearGradient>
</defs>
</svg>
