<svg width="56" height="57" viewBox="0 0 56 57" fill="none" xmlns="http://www.w3.org/2000/svg">
<path d="M52.1537 4.71094H1.08838V55.8723H52.1537V4.71094Z" fill="url(#paint0_radial)"/>
<path d="M51.0333 5.83116V54.8155H2.17708V5.83116H51.0333ZM53.2424 3.62207H0V56.9925H53.2744V3.62207H53.2424Z" fill="#30292C"/>
<path d="M15.9759 45.4349C19.2415 48.3483 23.4676 49.9491 27.8538 49.9491C37.7146 49.9491 45.7186 41.9451 45.7186 32.0842H44.9823C44.9823 41.5289 37.2984 49.2127 27.8538 49.2127C23.5316 49.2127 19.4016 47.6119 16.232 44.6665L16.0079 44.4424L8.0039 51.2938H5.3786V48.7325L13.6387 41.593L13.4786 41.3368C11.6857 38.5835 10.7573 35.3819 10.7573 32.0522H10.0209C10.0209 35.3819 10.9494 38.6475 12.6782 41.4649L4.64224 48.4123V52.0301H8.29204L15.9759 45.4349ZM14.9193 20.3344C18.1529 16.7486 23.0194 14.9237 27.8538 14.9237V14.1874C22.9553 14.1874 18.0249 16.0123 14.6312 19.566L4.54619 9.19287L4.03394 9.70513L14.6952 20.6225L14.9193 20.3344Z" fill="url(#paint1_linear)"/>
<path d="M19.7214 0.580566L55.8354 36.6945V0.580566H19.7214Z" fill="#30292C"/>
<path d="M52.4097 28.0825L51.6733 27.4102C51.6413 27.3781 48.952 24.9129 45.8144 21.7753L46.4227 21.1671C48.5678 23.3121 50.4888 25.137 51.5133 26.0975V5.19112H34.3848C33.8085 5.19112 33.0401 5.31918 32.784 5.92748C32.5278 6.53578 32.88 7.43223 33.3282 7.88045C34.1286 8.68085 39.3792 13.8994 40.7559 15.2761L47.6393 8.45674L47.9595 8.7769C50.0085 10.8259 50.0085 14.1876 47.9595 16.2366C45.9105 18.2856 42.5488 18.2856 40.4998 16.2366C40.4358 16.1726 33.6484 9.41721 32.7519 8.48875C32.0796 7.81642 31.5994 6.56781 32.0156 5.57531C32.2077 5.09508 32.784 4.29468 34.4168 4.29468H52.4417V28.0825H52.4097ZM41.3962 15.8524C43.1251 17.2931 45.6864 17.1971 47.3192 15.5643C48.92 13.9635 49.016 11.4022 47.6073 9.67334L41.3962 15.8524Z" fill="#F4EDF0"/>
<path d="M19.4333 41.337C16.6159 38.5196 14.6309 34.7737 13.8945 30.8678L16.1677 31.316C17.5764 35.254 18.9851 37.303 21.7064 39.8323C24.7479 42.6497 27.1171 41.7212 27.9175 40.9208C28.4938 40.3445 29.9665 39.256 29.0381 36.5986C28.1736 34.1014 26.3807 32.3085 25.9005 31.7963C25.8365 31.7322 25.8044 31.7002 25.7404 31.6362L27.8855 30.0994C29.4863 31.6362 32.912 34.4536 36.0495 31.316C38.8349 28.5306 37.3302 26.4496 35.7934 24.9128C33.8084 22.9279 31.9515 23.0239 30.4147 23.8884C29.3902 24.4646 28.5578 25.6492 28.1096 26.3536L25.1321 25.137C25.1961 25.0409 26.6048 22.8318 28.6859 21.5512C31.055 20.1105 34.6408 20.1105 37.6503 23.088C41.3001 26.7378 41.7804 30.8358 38.6748 33.9413C36.4977 36.1184 34.0645 36.2465 31.5673 35.4461C32.0475 36.5346 32.3677 37.7192 32.3677 38.9038C32.3997 40.7287 31.7274 42.2975 30.4147 43.6421C28.1736 45.8833 24.908 45.5311 21.6744 43.1939C20.842 42.6497 20.1056 42.0093 19.4333 41.337Z" fill="url(#paint2_linear)"/>
<path d="M37.2023 41.3688C42.3889 36.1822 42.3889 27.8261 37.2023 22.6395C32.0157 17.4529 23.2434 17.2288 17.9928 22.3193C14.9833 25.2328 13.7026 28.8186 14.3749 31.1237" stroke="#E21423" stroke-miterlimit="10"/>
<defs>
<radialGradient id="paint0_radial" cx="0" cy="0" r="1" gradientUnits="userSpaceOnUse" gradientTransform="translate(26.6181 30.3112) scale(25.5592)">
<stop stop-color="#E2DDE0"/>
<stop offset="0.5222" stop-color="#EFE9EC"/>
<stop offset="1" stop-color="#F4EDF0"/>
</radialGradient>
<linearGradient id="paint1_linear" x1="24.8728" y1="52.0308" x2="24.8728" y2="9.2036" gradientUnits="userSpaceOnUse">
<stop stop-color="#9C1423"/>
<stop offset="0.0628147" stop-color="#B21423"/>
<stop offset="0.1442" stop-color="#C71423"/>
<stop offset="0.2348" stop-color="#D61423"/>
<stop offset="0.3408" stop-color="#DF1423"/>
<stop offset="0.5" stop-color="#E21423"/>
<stop offset="0.6529" stop-color="#DF1423"/>
<stop offset="0.7605" stop-color="#D61423"/>
<stop offset="0.8542" stop-color="#C61423"/>
<stop offset="0.9393" stop-color="#B11423"/>
<stop offset="1" stop-color="#9C1423"/>
</linearGradient>
<linearGradient id="paint2_linear" x1="27.2933" y1="45.1617" x2="27.2933" y2="20.6334" gradientUnits="userSpaceOnUse">
<stop stop-color="#B21423"/>
<stop offset="0.7365" stop-color="#E21423"/>
</linearGradient>
</defs>
</svg>
